<?xml version="1.0" standalone="no"?>
<!DOCTYPE svg PUBLIC "-//W3C//DTD SVG 20010904//EN"
 "http://www.w3.org/TR/2001/REC-SVG-20010904/DTD/svg10.dtd">
<svg version="1.0" xmlns="http://www.w3.org/2000/svg"
 width="920.000000pt" height="690.000000pt" viewBox="0 0 920.000000 690.000000"
 preserveAspectRatio="xMidYMid meet">
<metadata>
Created by potrace 1.15, written by Peter Selinger 2001-2017
</metadata>
<g transform="translate(0.000000,690.000000) scale(0.100000,-0.100000)"
fill="#000000" stroke="none">
<path d="M4181 6884 c-12 -9 -18 -20 -15 -26 4 -7 2 -8 -4 -4 -24 15 -104
-157 -86 -185 9 -15 -26 -115 -51 -149 -14 -19 -25 -39 -25 -44 0 -6 5 -4 10
4 5 8 10 11 10 5 0 -5 -4 -16 -9 -23 -7 -11 -10 -10 -15 3 -15 41 -5 92 29
150 21 34 28 52 17 42 -35 -32 -62 -99 -63 -159 -1 -31 -6 -63 -11 -70 -7 -9
-8 -7 -3 7 4 13 3 17 -4 10 -5 -6 -11 -28 -12 -50 -2 -22 -13 -63 -26 -92 -13
-28 -23 -64 -23 -78 0 -14 -4 -24 -9 -21 -13 8 -21 -20 -9 -32 17 -17 -12 -25
-31 -8 -16 15 -17 14 -13 -13 4 -26 1 -29 -17 -24 -17 4 -21 1 -21 -19 0 -13
6 -30 13 -38 10 -12 9 -12 -4 -2 -13 10 -19 9 -28 -2 -10 -11 -8 -17 6 -26 16
-9 15 -10 -6 -4 -17 4 -21 3 -16 -6 6 -9 3 -9 -14 -1 -18 10 -20 9 -14 -6 4
-10 12 -22 20 -26 21 -13 15 -29 -9 -27 -57 5 -64 0 -28 -21 31 -17 32 -19 10
-17 -16 2 -24 -2 -23 -9 2 -7 -4 -13 -12 -13 -8 0 -15 -5 -15 -11 0 -5 4 -8 8
-5 5 3 9 -1 9 -9 0 -8 -4 -12 -9 -9 -4 3 -8 0 -8 -5 0 -6 5 -11 10 -11 6 0 10
-5 10 -11 0 -6 -7 -9 -14 -6 -10 4 -13 1 -9 -9 4 -10 0 -13 -13 -8 -16 5 -16
4 -4 -5 8 -6 29 -9 45 -6 l30 6 -25 -15 c-14 -9 -34 -16 -45 -16 l-20 -1 20
-9 c18 -7 18 -8 3 -15 -15 -6 -16 -9 -3 -22 17 -16 20 -33 6 -33 -5 0 -8 -19
-7 -42 1 -24 -2 -49 -7 -55 -7 -9 -4 -13 9 -13 12 0 15 -3 8 -8 -17 -11 -39
-132 -24 -132 10 0 7 -54 -4 -62 -5 -3 -9 -34 -9 -67 1 -34 -3 -61 -8 -61 -5
0 -9 -5 -9 -11 0 -5 5 -7 10 -4 10 6 12 -6 12 -60 0 -50 -2 -54 -19 -49 -15 5
-15 4 -3 -4 10 -8 18 -8 27 0 11 8 12 7 7 -8 -4 -10 -13 -26 -21 -36 -10 -11
-11 -18 -3 -23 6 -3 9 -1 8 6 -2 6 2 13 7 15 6 2 10 -21 11 -56 1 -56 -3 -65
-28 -61 -10 1 -10 -13 -1 -22 3 -4 12 -2 20 4 9 8 13 8 13 1 0 -6 -5 -14 -10
-17 -6 -4 -8 -15 -5 -26 4 -11 2 -19 -4 -19 -6 0 -11 8 -11 19 0 10 -7 24 -15
31 -8 7 -15 8 -15 2 0 -5 -12 -9 -26 -9 -15 0 -30 -7 -35 -14 -4 -7 -11 -10
-15 -7 -8 9 23 41 34 34 4 -2 14 -1 21 4 22 13 -24 23 -48 11 -13 -8 -22 -8
-26 -1 -4 6 -11 8 -16 5 -5 -4 -3 -13 6 -21 20 -21 19 -34 -3 -34 -10 0 -22
-4 -28 -10 -5 -5 -22 -11 -37 -12 -17 -2 -27 -8 -27 -19 0 -8 -7 -16 -15 -16
-10 0 -13 6 -9 19 6 20 -3 23 -26 8 -12 -8 -12 -10 -1 -10 8 0 12 -2 9 -5 -3
-3 -28 2 -57 12 -51 16 -52 16 -66 -4 -12 -17 -22 -20 -61 -15 -30 3 -49 1
-54 -7 -11 -20 -76 -3 -88 22 -9 19 -10 17 -6 -13 l4 -35 -10 33 c-6 17 -15
32 -20 32 -5 0 -14 -15 -19 -32 -8 -28 -9 -29 -10 -9 l-1 24 -19 -21 c-10 -12
-30 -22 -45 -22 -14 0 -26 -4 -26 -9 0 -14 -33 -6 -39 10 -13 39 -45 46 -103
24 -14 -6 -18 -2 -18 14 0 14 -6 21 -19 21 -10 0 -21 7 -25 15 -3 8 -11 15
-18 15 -7 0 -26 18 -41 40 -16 22 -33 40 -38 40 -5 0 -14 11 -18 24 -9 22 -14
23 -163 31 -84 4 -187 8 -228 9 -41 1 -80 5 -87 9 -10 6 -59 11 -255 21 -71 4
-85 -3 -43 -22 16 -7 23 -17 19 -27 -7 -18 -20 -20 -27 -2 -3 6 -6 7 -6 1 -1
-5 15 -25 34 -44 19 -19 35 -29 35 -22 0 7 -4 12 -10 12 -16 0 -12 17 6 24 11
4 21 -6 35 -39 11 -24 31 -53 46 -64 14 -12 21 -21 14 -21 -18 0 -13 -18 7
-23 13 -4 12 -5 -5 -6 -32 -1 -93 -32 -93 -47 0 -18 -71 -29 -81 -13 -4 8 -11
10 -15 6 -4 -4 -2 -13 4 -19 7 -7 12 -17 12 -22 0 -6 -7 0 -16 12 -8 12 -19
20 -24 17 -4 -3 -10 -2 -12 2 -1 5 -15 -4 -30 -19 -15 -16 -22 -28 -17 -28 6
0 7 -4 4 -10 -3 -5 -3 -10 0 -10 11 0 30 25 30 39 0 8 8 15 17 17 15 2 16 -1
8 -17 -6 -10 -8 -20 -5 -20 3 -1 9 -2 14 -3 5 0 12 -4 16 -8 9 -9 -16 -5 -32
5 -8 5 -17 0 -25 -13 -9 -14 -23 -20 -50 -20 -36 0 -38 -2 -38 -30 l0 -30 76
0 c52 0 80 -4 88 -13 7 -9 54 -18 127 -25 63 -7 135 -18 160 -26 67 -21 183
-37 187 -26 2 6 10 10 18 10 10 0 14 -12 14 -40 0 -28 -4 -40 -14 -40 -8 0
-16 5 -18 11 -3 9 -26 9 -83 3 l-80 -10 150 -8 c83 -4 197 -14 255 -22 58 -8
155 -19 215 -24 339 -31 346 -32 374 -58 14 -13 26 -28 26 -33 0 -5 5 -13 11
-17 14 -9 35 -48 29 -53 -2 -3 -53 -1 -112 4 -59 4 -121 6 -138 4 -16 -1 11
-6 60 -10 78 -7 153 -17 233 -33 12 -2 22 -10 22 -17 0 -6 16 -30 35 -52 32
-37 40 -62 19 -59 -5 1 -63 7 -129 13 -66 6 -160 16 -210 21 -49 6 -196 19
-325 30 -129 11 -309 27 -400 35 -156 14 -328 29 -895 75 -132 11 -334 27
-450 35 -116 8 -232 17 -260 20 -27 2 -58 4 -67 5 -25 0 -22 29 4 51 11 11 18
19 14 19 -4 0 -2 9 4 19 11 22 -26 21 425 7 160 -5 154 4 -12 20 -40 4 -73 10
-73 14 0 5 -17 6 -38 3 -32 -4 -38 -1 -47 19 -6 12 -18 22 -28 22 -22 -2 -22
0 9 33 26 28 27 28 170 31 79 2 144 8 144 13 0 5 -11 9 -25 9 -14 0 -25 6 -25
13 0 8 -4 7 -10 -3 -9 -13 -11 -13 -20 0 -9 13 -11 13 -20 0 -9 -13 -12 -13
-21 3 -7 12 -24 17 -62 18 -51 2 -51 2 -12 8 l40 6 -40 37 c-22 21 -34 38 -27
38 6 0 12 5 12 10 0 6 -7 10 -15 10 -8 0 -19 9 -26 21 -7 14 -17 19 -30 16
-12 -3 -19 0 -19 9 0 25 -19 15 -23 -13 l-4 -28 -2 28 c-2 44 -21 31 -22 -15
l-2 -43 -7 50 c-6 46 -4 52 23 79 27 27 28 30 11 37 -11 3 -21 5 -24 3 -3 -1
-6 10 -5 26 0 15 3 26 8 23 4 -2 6 -12 5 -20 -2 -9 5 -17 15 -19 14 -2 16 1 7
11 -6 7 -9 19 -8 26 2 7 -5 13 -14 12 -49 -2 -58 -4 -72 -19 -15 -14 -16 -14
-16 0 0 9 -8 16 -17 16 -15 0 -16 -2 -3 -10 13 -9 13 -10 0 -10 -13 0 -13 -1
0 -10 11 -7 11 -10 2 -10 -8 0 -10 -5 -6 -12 5 -10 4 -10 -6 -1 -7 6 -20 9
-29 6 -14 -4 -14 -3 -1 6 12 9 11 11 -10 12 l-25 1 25 8 c14 4 18 9 10 9 -9 1
-11 4 -5 9 14 10 18 42 5 42 -5 0 -10 -4 -10 -10 0 -27 -21 -5 -30 32 -8 28
-14 37 -20 28 -7 -11 -11 -10 -25 4 -10 9 -30 20 -45 23 -20 3 -27 10 -23 20
3 9 8 11 12 5 4 -7 15 -5 31 4 l25 15 -27 -5 c-20 -5 -28 -2 -31 11 -4 15 -5
15 -6 -2 -1 -17 -3 -18 -12 -5 -8 12 -9 10 -4 -7 5 -18 3 -20 -16 -16 -15 4
-20 3 -15 -6 4 -6 12 -9 17 -6 5 4 12 0 15 -8 3 -9 13 -13 26 -9 16 4 19 1 16
-14 -3 -14 -11 -18 -33 -17 -30 2 -30 2 -6 -11 20 -11 21 -14 6 -19 -25 -10
-32 -8 -15 4 12 9 11 10 -8 6 -12 -3 -20 -1 -16 4 3 5 -2 9 -10 9 -8 0 -21 6
-29 14 -8 8 -30 16 -51 18 -20 2 -36 7 -36 11 0 4 0 12 0 18 0 5 5 7 12 3 7
-4 8 -3 4 5 -5 8 -12 9 -20 2 -8 -7 -12 -5 -12 9 0 12 6 17 18 15 10 -2 16 0
13 5 -3 4 -19 7 -36 6 -17 -1 -39 5 -51 16 -23 20 -53 24 -63 7 -5 -7 -14 -4
-26 7 -14 13 -16 20 -8 30 13 16 33 8 23 -8 -5 -7 -2 -8 6 -3 9 6 11 4 5 -5
-5 -8 -4 -11 3 -7 13 9 9 42 -6 43 -7 1 -31 3 -54 4 -24 1 -35 4 -26 7 25 6
22 30 -4 36 -13 2 -31 8 -41 12 -17 7 -17 -11 -17 -334 1 -188 5 -339 9 -336
5 2 14 -2 21 -10 7 -8 21 -15 31 -15 12 0 19 -7 19 -20 0 -22 1 -22 70 -41 34
-10 40 -14 22 -17 -13 -2 -19 -8 -16 -14 5 -7 2 -8 -7 -2 -24 15 -59 16 -57 2
2 -7 -1 -12 -7 -11 -5 1 -27 4 -47 8 l-38 7 0 -91 0 -91 40 -6 c22 -4 40 -10
40 -15 0 -14 58 -10 63 4 4 9 8 9 16 -3 5 -8 8 -17 6 -20 -2 -4 2 -7 9 -7 8 0
11 8 8 21 l-4 21 15 -20 c9 -12 29 -22 48 -23 18 -1 46 -9 63 -17 17 -7 59
-21 93 -31 43 -11 64 -22 68 -35 4 -10 -1 -67 -10 -126 -9 -60 -18 -119 -20
-133 -5 -41 -93 -528 -110 -610 -8 -41 -36 -192 -61 -335 -48 -270 -53 -297
-78 -430 -50 -270 -65 -338 -75 -344 -5 -4 -14 -18 -20 -31 -8 -23 -10 -23
-16 -6 -5 11 -3 21 6 27 10 6 4 9 -18 9 -18 0 -32 -3 -32 -7 5 -29 -2 -36 -16
-17 -13 17 -15 -10 -13 -257 1 -223 4 -276 15 -272 7 3 13 -2 13 -11 0 -10 -6
-13 -15 -10 -11 5 -15 -1 -15 -25 0 -21 5 -31 15 -31 19 0 20 -16 1 -23 -19
-8 -18 -117 1 -117 18 0 17 -19 -1 -26 -11 -4 -15 -25 -15 -85 0 -44 4 -77 9
-74 4 3 10 0 12 -6 5 -16 38 1 38 20 1 13 3 12 12 -4 6 -11 12 -21 13 -23 7
-9 35 13 31 24 -3 7 1 26 9 41 18 35 19 43 1 43 -7 0 -16 -13 -19 -30 -7 -32
-21 -39 -31 -15 -3 8 -1 15 3 15 5 0 7 9 4 20 -3 11 -9 20 -14 20 -5 0 -7 11
-3 25 9 36 -15 32 -27 -5 -6 -16 -15 -28 -19 -25 -13 8 -7 45 7 45 7 0 13 7
13 15 0 8 4 15 10 15 5 0 7 6 4 14 -3 9 -12 12 -22 8 -15 -5 -16 -4 -2 14 8
10 20 22 27 27 7 4 10 14 7 21 -3 7 2 16 10 19 11 4 16 1 16 -12 0 -10 -7 -21
-15 -25 -17 -6 -21 -46 -5 -46 6 0 10 -11 10 -25 0 -14 5 -25 11 -25 6 0 8 -9
4 -20 -5 -14 -2 -20 9 -20 18 0 22 36 5 42 -17 6 -1 48 17 48 12 0 14 -7 9
-31 -5 -22 -4 -29 4 -25 7 5 11 -2 11 -18 0 -30 15 -35 23 -8 4 9 13 27 22 39
10 13 12 23 6 27 -6 4 -13 -5 -17 -19 -8 -32 -29 -27 -28 6 1 13 -5 28 -13 32
-10 6 -11 12 -3 22 8 9 6 14 -6 19 -8 3 -14 12 -11 19 2 6 -3 17 -11 23 -17
12 -9 49 8 39 6 -4 8 -11 5 -16 -4 -5 1 -12 9 -15 9 -3 16 -14 16 -25 0 -22
21 -69 31 -69 4 0 9 7 13 15 8 22 26 18 26 -5 0 -11 4 -20 9 -20 5 0 7 -9 4
-20 -3 -11 0 -27 7 -35 7 -8 10 -24 7 -34 -3 -14 -1 -18 9 -14 8 3 14 9 14 13
0 5 3 15 6 24 4 11 1 16 -10 16 -23 0 -20 23 4 38 12 7 18 17 15 21 -3 5 1 11
7 14 7 2 10 8 6 12 -11 11 -28 -4 -28 -26 0 -12 -5 -19 -12 -16 -7 2 -13 11
-13 19 0 8 -6 23 -14 32 -15 18 -8 46 12 46 10 0 13 -9 10 -27 -3 -25 -2 -26
9 -10 7 10 34 40 60 68 26 27 50 59 53 70 7 22 17 19 21 -6 1 -8 -4 -15 -12
-15 -13 0 -18 -12 -15 -32 0 -5 -5 -8 -13 -8 -21 0 -25 -22 -9 -54 13 -26 13
-29 -6 -43 -17 -11 -19 -18 -11 -33 14 -27 13 -63 -3 -58 -6 3 -18 15 -24 29
-13 24 -13 24 -13 2 0 -13 5 -23 10 -23 16 0 12 -27 -7 -46 -10 -10 -18 -20
-18 -24 0 -6 -10 -19 -59 -75 -33 -38 -36 -39 -65 -29 -22 9 -31 9 -34 0 -3
-8 -8 -8 -18 0 -8 6 -33 12 -56 13 -40 2 -43 1 -43 -22 0 -20 6 -25 38 -31 20
-3 52 -6 70 -6 24 0 32 -4 32 -18 0 -26 -39 -41 -94 -35 l-46 4 0 -555 0 -556
803 1 c441 1 789 4 772 8 -90 22 -118 62 -69 100 33 26 46 26 69 1 18 -19 17
-20 -1 -20 -24 0 -74 -22 -74 -32 0 -5 10 -8 23 -8 13 0 28 -5 34 -11 7 -7 33
-13 60 -15 26 -3 58 -9 70 -16 29 -15 40 -4 19 18 -10 9 -16 28 -14 43 3 24 0
26 -32 23 -26 -2 -31 0 -20 7 30 21 62 12 100 -29 20 -22 33 -40 28 -40 -13 0
-9 -17 5 -18 6 -1 24 -4 40 -8 l27 -6 -4 61 c-3 37 -1 59 5 56 5 -4 9 3 9 14
0 10 -6 22 -12 24 -10 4 -10 8 1 15 9 7 11 19 7 36 -3 14 -3 26 2 26 4 0 8 25
9 55 1 32 -3 55 -9 55 -7 0 -7 4 0 13 5 6 12 28 14 47 3 30 0 35 -20 38 -12 2
-20 7 -17 12 3 4 -2 13 -10 20 -22 18 -19 87 5 117 20 25 20 25 20 4 0 -14 4
-20 11 -15 8 4 9 -3 5 -22 -3 -17 0 -39 9 -54 l14 -25 2 25 c1 14 2 33 1 43
-1 9 3 17 9 17 6 0 9 9 6 20 -3 13 0 20 9 20 21 0 36 34 21 50 -10 10 -8 11
10 6 15 -5 25 -1 35 12 10 14 19 17 34 11 12 -4 25 -12 28 -18 4 -6 14 -7 22
-4 14 5 15 3 5 -15 -16 -30 -14 -50 7 -55 16 -4 16 -5 0 -6 -12 -1 -18 -9 -18
-26 0 -17 6 -25 18 -25 16 -1 16 -1 0 -14 -23 -17 -23 -53 0 -59 16 -4 16 -5
0 -6 -21 -1 -25 -40 -6 -59 9 -9 9 -12 0 -12 -7 0 -12 -13 -12 -30 0 -16 5
-30 10 -30 6 0 10 -4 10 -10 0 -5 -7 -10 -15 -10 -23 0 -20 -67 3 -73 16 -4
16 -5 0 -6 -21 -1 -26 -61 -5 -61 8 0 9 -3 1 -8 -12 -8 -26 -52 -16 -52 15 0
50 44 45 56 -4 10 0 12 11 8 12 -5 16 0 17 22 0 25 2 26 9 9 7 -18 8 -19 15
-2 4 9 5 24 2 32 -4 8 -2 17 3 20 6 4 10 0 10 -7 0 -9 3 -9 10 2 5 8 7 23 4
34 -4 11 -2 16 4 12 5 -3 12 1 16 9 3 8 1 17 -4 20 -15 9 -12 25 4 19 20 -8
30 14 14 33 -11 14 -11 16 4 10 15 -5 51 22 38 29 -3 1 -2 6 3 10 4 4 7 2 7
-5 0 -10 7 -8 27 4 21 14 25 15 20 2 -7 -19 11 -37 32 -30 13 5 14 3 4 -7 -8
-9 -9 -19 -3 -30 7 -12 5 -28 -6 -49 -8 -17 -16 -41 -17 -53 0 -13 -9 -29 -19
-36 -10 -7 -16 -18 -13 -23 3 -5 -3 -19 -14 -31 -12 -12 -21 -27 -21 -33 0 -5
-10 -15 -22 -20 -15 -7 -22 -17 -20 -30 3 -16 1 -17 -11 -7 -16 13 -47 6 -47
-10 0 -6 -7 -7 -16 -4 -8 3 -33 3 -55 0 -33 -6 -39 -10 -39 -30 l0 -24 1128 0
1128 0 18 38 c24 48 46 121 46 150 0 17 10 27 44 42 55 23 63 36 28 43 -17 4
-33 16 -40 31 -6 14 -19 26 -27 26 -9 0 -20 12 -25 26 -9 23 -14 26 -43 20
-84 -18 -123 -18 -136 -2 -20 24 -7 57 43 111 25 26 48 60 51 76 10 45 31 56
69 35 31 -16 36 -16 71 -2 112 47 180 -20 98 -98 -28 -26 -34 -38 -26 -48 11
-14 23 -69 26 -128 2 -33 6 -36 52 -52 28 -9 62 -17 77 -18 15 0 29 -4 32 -9
3 -4 26 -11 52 -15 43 -6 50 -3 90 30 24 19 44 44 44 54 0 13 9 22 25 26 14 3
25 12 25 19 0 17 64 49 85 41 23 -8 14 -43 -22 -87 -56 -65 -105 -114 -99 -96
8 25 1 21 -20 -11 -15 -23 -15 -25 -1 -13 26 21 20 -2 -13 -47 -16 -23 -30
-46 -30 -51 0 -5 -21 -28 -46 -50 l-47 -41 521 0 c437 0 521 2 525 14 6 15 63
16 88 1 16 -11 316 -19 306 -9 -4 4 10 15 31 25 20 9 46 24 57 32 19 14 19 16
2 34 -9 11 -17 28 -17 39 0 11 -5 25 -11 31 -6 6 -14 25 -18 43 -5 28 -14 35
-65 56 -33 13 -68 31 -78 41 -22 20 -24 59 -2 67 37 14 176 0 152 -15 -7 -5
-8 -9 -2 -9 6 0 19 9 29 20 26 29 66 25 100 -10 16 -16 58 -44 94 -60 76 -36
101 -56 101 -81 0 -23 -61 -41 -113 -32 -37 6 -38 5 -32 -20 5 -19 2 -28 -14
-37 -13 -6 -21 -21 -21 -35 0 -21 -5 -25 -27 -25 -44 0 -9 -17 63 -30 35 -7
65 -18 68 -26 4 -12 62 -14 335 -14 l329 0 -5 68 c-3 37 -11 84 -19 105 -18
48 -18 49 8 45 16 -2 27 -16 39 -49 10 -25 29 -63 43 -84 15 -21 29 -49 32
-62 6 -22 10 -23 93 -22 69 0 82 2 64 11 -27 13 -28 23 -8 71 11 28 19 34 35
30 12 -3 20 0 20 7 0 7 -7 10 -15 6 -10 -3 -15 1 -15 13 0 16 -29 46 -222 229
-61 57 -67 68 -44 86 12 9 12 15 0 41 l-14 30 4 -32 c2 -18 0 -33 -5 -33 -5 0
-7 22 -5 50 3 27 0 52 -5 55 -5 4 -9 12 -9 18 0 9 3 8 8 -1 5 -8 8 1 8 23 -1
22 -6 35 -14 35 -9 0 -11 -7 -7 -20 12 -39 -3 -19 -20 26 -10 26 -26 55 -37
66 -15 15 -17 23 -8 33 20 24 -10 29 -41 6 -34 -26 -66 -27 -73 -3 -3 9 -8 46
-11 82 -3 36 -8 77 -11 92 -4 19 1 33 18 50 l23 23 -22 3 c-12 2 -27 10 -33
18 -7 8 -20 14 -30 14 -9 0 -24 8 -34 19 -16 17 -19 17 -61 2 -34 -12 -49 -13
-63 -5 -23 15 -27 70 -7 100 12 18 13 29 5 44 -15 28 -3 43 29 37 18 -4 38 2
64 20 31 21 43 25 64 17 40 -14 50 -37 35 -78 -12 -32 -11 -38 10 -68 13 -18
28 -37 35 -43 6 -5 13 -19 15 -30 2 -14 14 -22 38 -26 19 -4 28 -7 19 -8 -24
-2 -44 -28 -27 -34 10 -3 10 -9 -1 -28 -14 -24 -14 -24 7 -6 22 20 42 6 24
-16 -8 -9 -4 -12 14 -13 13 -1 21 2 18 7 -3 5 3 9 13 10 13 1 12 3 -5 7 -13 4
-23 11 -23 17 0 5 10 13 23 17 17 6 14 7 -9 3 -40 -5 -48 6 -21 29 17 15 31
17 70 12 26 -4 55 -9 62 -12 14 -5 48 44 45 63 -1 4 0 11 1 16 1 4 3 13 4 19
2 22 34 20 46 -2 9 -16 8 -33 -4 -74 -9 -30 -16 -65 -16 -79 0 -14 -6 -32 -14
-39 -7 -8 -17 -25 -21 -38 -7 -25 -7 -25 10 -5 l17 20 -8 -20 c-17 -46 -17
-88 0 -97 9 -5 16 -17 16 -26 0 -9 7 -30 15 -46 9 -16 13 -31 10 -34 -3 -3 -5
0 -5 7 0 7 -5 9 -10 6 -7 -4 -6 -14 1 -28 10 -21 9 -21 -5 -3 -8 10 -27 25
-42 32 -24 13 -29 12 -43 -3 -13 -14 -15 -30 -10 -82 10 -106 28 -151 76 -194
24 -21 43 -44 43 -50 0 -7 -12 3 -26 21 -14 17 -31 32 -37 32 -6 0 4 -16 23
-35 18 -19 36 -32 40 -30 11 7 171 -160 163 -170 -4 -4 -3 -5 4 -1 21 12 36
-31 24 -66 -6 -17 -11 -46 -11 -64 l0 -34 516 0 c409 0 514 3 508 13 -4 6 -18
26 -31 43 -13 17 -23 35 -23 39 0 5 -14 30 -31 57 -30 46 -31 51 -15 66 15 15
16 15 16 -1 0 -9 -4 -17 -10 -17 -5 0 -7 -7 -3 -16 4 -11 8 -12 13 -4 5 9 9 9
14 1 4 -6 4 -16 0 -23 -5 -7 -3 -8 5 -3 15 9 52 -24 93 -83 24 -35 27 -46 18
-57 -10 -12 -9 -15 9 -15 14 0 20 4 15 11 -5 8 -1 8 14 0 23 -12 178 -15 185
-3 4 6 -36 46 -179 179 -28 27 -55 59 -59 73 -5 17 5 9 33 -27 23 -28 61 -65
84 -82 24 -16 66 -57 93 -90 l50 -60 248 0 247 -1 0 649 0 649 -60 7 -61 7 3
746 c3 701 4 745 21 748 9 1 17 -2 17 -7 0 -5 18 -9 40 -9 l40 0 0 2054 0
2055 -185 0 c-102 0 -184 -3 -181 -7 3 -5 0 -14 -6 -22 -8 -12 -9 -12 -4 3 7
22 -22 36 -35 16 -6 -9 -12 -10 -16 -4 -5 6 -22 11 -40 11 -25 0 -30 -3 -21
-13 8 -11 5 -20 -15 -41 -19 -20 -27 -39 -27 -65 0 -37 -22 -53 -33 -24 -4 10
-6 10 -6 0 -2 -23 -21 -14 -21 10 0 20 -1 19 -15 -7 -21 -40 -11 -70 21 -62
24 6 25 6 8 -19 -13 -19 -20 -23 -34 -15 -24 13 -33 13 -24 -1 8 -13 -34 -2
-55 14 -20 16 -40 17 -34 1 3 -7 8 -13 11 -12 4 1 15 -2 25 -5 9 -4 24 -9 32
-12 8 -2 15 -9 15 -15 0 -6 -14 -4 -36 5 -42 17 -44 18 -44 7 0 -5 18 -14 40
-21 36 -11 56 -31 30 -31 -5 0 -10 -8 -10 -17 0 -15 2 -16 10 -3 8 12 10 12
11 -5 0 -20 1 -20 8 -1 7 19 8 18 15 -5 l8 -24 8 25 c5 16 6 4 5 -37 -2 -38 1
-63 7 -63 7 0 7 -4 0 -12 -5 -7 -8 -24 -6 -37 3 -14 2 -22 -2 -19 -3 3 -6 12
-8 20 -1 7 -6 19 -10 27 -6 9 -5 12 1 8 7 -4 10 5 9 23 0 17 -4 30 -8 30 -5 0
-8 10 -8 22 0 32 -9 17 -12 -20 -1 -18 -6 -32 -11 -32 -5 0 -7 15 -5 33 3 30
1 33 -17 30 -16 -4 -17 -3 -5 6 10 7 11 11 3 11 -7 0 -13 7 -13 15 0 8 -4 15
-10 15 -12 0 -9 -22 5 -32 6 -4 1 -8 -10 -9 l-20 0 20 -9 c11 -5 14 -9 8 -9
-8 -1 -13 -15 -14 -33 0 -18 -3 -27 -6 -20 -2 6 -9 10 -14 6 -5 -3 -9 1 -9 8
0 9 -3 9 -10 -2 -9 -13 -12 -12 -25 4 -15 20 -15 20 -16 0 0 -10 -3 -13 -6 -6
-2 6 -12 12 -21 12 -12 0 -13 3 -5 8 7 4 14 18 16 30 2 12 7 25 11 29 4 5 7 4
5 -2 -1 -5 5 -26 14 -45 9 -19 16 -29 17 -22 0 6 9 12 21 12 15 0 20 5 17 23
-2 12 -11 28 -21 35 -9 7 -15 18 -12 23 12 19 13 49 3 55 -6 4 -8 2 -4 -4 3
-6 2 -13 -2 -16 -12 -7 -8 -41 5 -58 9 -10 7 -18 -4 -33 -15 -19 -15 -19 -8 5
5 20 4 22 -5 10 -9 -12 -10 -11 -5 7 3 12 2 24 -4 27 -10 7 -9 25 3 44 4 7 5
16 2 19 -3 4 -6 1 -6 -6 0 -7 -4 -10 -9 -6 -5 3 -12 1 -16 -5 -3 -5 -23 -11
-43 -11 l-37 -2 38 -6 c21 -3 38 -10 38 -16 0 -25 -11 -45 -25 -45 -9 0 -16
-4 -16 -10 0 -5 -6 -10 -14 -10 -8 0 -18 -5 -22 -12 -5 -7 -2 -9 9 -5 9 3 18
1 21 -6 2 -7 5 -4 5 6 2 34 16 16 18 -24 2 -37 0 -42 -27 -52 -23 -9 -30 -18
-30 -39 0 -26 -3 -28 -40 -28 -22 0 -40 -4 -40 -10 0 -5 -4 -10 -9 -10 -5 0
-12 19 -16 41 -5 29 -10 38 -16 28 -7 -12 -9 -12 -9 0 0 8 -3 12 -6 9 -3 -3
-2 -23 2 -43 5 -26 9 -33 15 -23 5 7 9 9 10 3 0 -5 2 -20 5 -32 3 -18 0 -21
-18 -18 -11 3 -17 1 -14 -3 4 -4 13 -7 19 -7 5 0 12 -6 15 -14 3 -9 0 -11 -8
-6 -9 5 -11 4 -6 -3 5 -8 -2 -12 -18 -12 -14 0 -26 -4 -26 -10 0 -5 15 -7 33
-5 l32 5 -34 -11 c-27 -8 -31 -13 -20 -20 12 -7 12 -9 -1 -9 -13 0 -13 -1 0
-10 8 -5 22 -9 30 -9 10 0 9 3 -5 10 -15 7 -12 8 15 4 25 -4 31 -2 20 5 -13 9
-13 10 0 10 12 0 13 2 1 9 -11 7 -11 9 0 14 10 4 10 6 2 6 -7 1 -13 6 -13 12
0 5 4 8 8 5 5 -3 9 1 9 9 0 8 -4 15 -9 15 -5 0 -6 5 -3 11 9 13 30 6 30 -11 0
-17 33 -22 42 -7 12 19 12 36 1 44 -6 3 -8 1 -4 -5 5 -9 -13 -10 -34 -2 -3 1
-14 2 -25 1 -15 -2 -17 0 -6 8 8 5 33 8 57 6 24 -1 41 2 38 7 -3 4 8 22 25 39
17 17 31 34 31 39 0 4 6 10 13 13 10 4 14 -8 16 -44 2 -45 0 -49 -21 -50 -17
-1 -18 -3 -5 -6 10 -3 17 -14 17 -30 0 -15 -5 -23 -12 -20 -7 2 -12 11 -10 21
2 12 -5 16 -28 16 -30 0 -41 -14 -17 -23 10 -4 10 -6 0 -6 -24 -2 -13 -21 11
-21 36 0 41 -18 15 -46 -30 -32 -39 -30 -39 6 0 48 -31 39 -53 -15 -16 -37
-23 -44 -40 -40 -51 11 -72 10 -69 -3 1 -7 -4 -20 -12 -28 -17 -16 -46 -19
-46 -4 0 13 -52 1 -65 -16 -5 -6 -17 -14 -25 -18 -8 -3 3 -3 25 0 22 3 44 11
48 17 6 8 7 5 3 -6 -3 -10 -6 -23 -6 -28 0 -5 -19 -8 -41 -7 -27 2 -43 -2 -46
-9 -3 -9 9 -13 42 -13 40 0 48 3 53 23 5 17 8 12 13 -23 l6 -45 1 48 c2 63 26
60 28 -4 l2 -44 -8 45 -7 45 -1 -43 c-2 -31 -7 -44 -19 -49 -10 -4 -21 -11
-24 -16 -4 -5 -23 -9 -43 -9 -32 0 -36 -2 -30 -20 4 -14 2 -18 -5 -14 -6 4
-11 3 -11 -3 0 -5 -18 -28 -40 -51 -46 -48 -57 -78 -40 -110 8 -15 8 -20 1
-16 -6 4 -11 1 -11 -6 0 -9 -3 -9 -10 2 -9 13 -11 13 -20 0 -5 -8 -10 -22 -10
-30 0 -8 -6 -4 -13 10 -8 15 -9 28 -4 31 19 13 -5 29 -44 29 -30 0 -39 -4 -39
-17 0 -9 -3 -14 -6 -11 -3 3 -2 22 1 42 7 34 9 36 46 36 35 0 39 -3 49 -32
l10 -33 -5 35 c-4 25 -2 31 5 20 6 -10 10 -11 10 -2 0 6 5 12 12 12 9 0 9 -3
0 -12 -16 -16 -15 -43 1 -56 9 -8 12 0 13 35 1 41 -3 49 -49 95 -27 27 -47 51
-45 54 3 2 13 -5 23 -16 24 -27 35 -25 35 6 0 20 -3 24 -13 16 -13 -11 -56 12
-44 24 4 4 13 1 22 -6 10 -8 15 -9 15 -1 0 6 -4 11 -10 11 -5 0 -10 10 -9 23
0 21 1 21 9 2 5 -13 9 -14 9 -5 0 8 -4 24 -9 35 l-9 20 -1 -20 -1 -20 -9 20
c-5 11 -9 15 -9 8 -1 -6 -4 -20 -7 -30 -5 -15 -4 -16 6 -3 9 13 11 12 8 -5 -3
-14 -11 -19 -28 -18 -14 1 -19 -1 -13 -3 10 -4 10 -11 2 -27 -9 -18 -9 -20 2
-9 27 25 32 11 5 -17 -16 -16 -36 -28 -46 -26 -14 3 -17 -2 -13 -18 4 -18 3
-19 -6 -7 -13 19 -14 1 -1 -20 9 -13 10 -13 10 0 0 12 2 12 9 2 6 -10 12 -5
21 18 14 34 45 56 55 40 9 -14 -12 -48 -34 -55 -13 -4 -18 -12 -14 -22 4 -10
2 -14 -4 -10 -6 4 -8 -3 -5 -18 2 -15 0 -25 -7 -25 -6 0 -11 -9 -11 -20 0 -11
-4 -20 -10 -20 -5 0 -10 7 -10 15 0 8 -5 15 -11 15 -5 0 -9 -8 -8 -17 1 -10
-3 -31 -10 -47 -8 -21 -9 -33 0 -45 6 -9 -10 7 -36 34 -46 49 -50 47 -13 -7
24 -35 16 -36 -15 -2 -24 25 -25 25 -55 10 -40 -21 -38 -21 -47 17 l-7 32 -14
-45 -13 -45 4 45 4 45 -13 -45 c-8 -26 -15 -36 -16 -25 -1 17 -3 15 -11 -7 -6
-15 -19 -30 -30 -33 -22 -7 -59 2 -59 16 0 5 -8 9 -17 9 -18 0 -49 -56 -63
-110 l-7 -25 -13 28 c-11 23 -19 27 -54 27 -39 0 -42 -3 -60 -43 l-19 -42 -6
35 -6 35 -32 -34 c-32 -34 -63 -37 -63 -6 0 8 -4 15 -10 15 -5 0 -10 9 -10 20
0 11 -6 20 -14 20 -8 0 -18 -22 -26 -62 -11 -52 -14 -59 -20 -38 -7 25 -7 25
-12 -5 l-5 -30 -2 30 c-3 30 -3 30 -11 5 -8 -24 -8 -24 -9 -2 -1 30 -7 28 -50
-18 -40 -43 -51 -48 -51 -25 0 11 -11 15 -39 15 -22 0 -41 5 -43 11 -2 7 -16
5 -41 -7 -32 -15 -37 -22 -37 -51 0 -41 -16 -36 -55 17 -17 23 -25 28 -25 17
0 -22 -37 -22 -62 0 -17 15 -18 14 -18 -40 l0 -57 -46 0 c-42 0 -45 -2 -39
-21 6 -19 5 -20 -8 -8 -14 12 -10 19 30 58 32 31 42 46 32 50 -8 2 -19 11 -25
19 -6 9 -16 12 -23 8 -8 -5 -12 -3 -10 5 3 24 -1 39 -10 39 -4 0 -7 -12 -5
-27 4 -33 -14 -93 -27 -93 -13 0 -11 18 4 23 9 4 9 6 -1 6 -9 1 -10 6 -2 20 8
16 6 22 -6 29 -12 7 -15 19 -12 46 2 21 0 36 -7 36 -5 0 -4 4 3 9 8 4 12 10
11 12 -2 2 4 15 14 29 9 13 17 19 17 12 0 -8 14 -11 38 -10 37 1 37 1 4 5 -18
2 -30 8 -27 13 3 5 12 7 20 3 8 -3 15 0 15 5 0 11 38 28 53 24 5 -1 6 2 2 8
-3 5 1 13 9 16 9 3 16 10 16 14 0 14 -36 17 -48 3 -24 -25 -30 -13 -26 55 3
64 2 65 -5 17 -5 -27 -12 -60 -16 -71 -7 -22 19 -42 30 -24 4 6 11 10 18 10
21 0 -37 -35 -60 -36 -12 0 -30 -7 -40 -15 -17 -13 -17 -13 -4 4 12 15 12 20
2 27 -8 4 -10 13 -6 20 5 8 4 11 -2 7 -5 -4 -10 -19 -11 -34 -1 -15 -6 -41
-12 -58 -9 -28 -10 -28 -5 10 3 22 5 48 5 57 0 9 7 24 16 32 8 9 11 16 6 16
-6 0 -9 28 -9 64 1 35 5 59 9 52 4 -6 6 5 5 24 -2 19 0 47 4 62 7 25 0 71 -16
112 -8 17 -7 17 25 1 l33 -17 -8 29 c-5 15 -8 40 -7 54 1 19 -6 29 -24 38 -14
6 -22 16 -19 22 4 5 -1 19 -10 29 -15 17 -15 21 -1 49 23 43 20 52 -19 86 -47
38 -92 58 -99 42 -2 -7 -5 -2 -5 11 -1 12 -5 22 -11 22 -11 0 -44 69 -41 88 1
6 -5 12 -14 12 -8 0 -23 4 -33 10 -9 5 -30 14 -45 20 -16 5 -25 14 -22 20 3 5
0 7 -8 5 -19 -8 -55 34 -39 44 9 5 5 13 -14 27 -42 30 -99 85 -82 79 9 -4 19
-1 23 5 4 7 -2 9 -20 6 -16 -3 -39 3 -58 14 -18 11 -36 21 -42 24 -43 15 -85
26 -104 26 -12 0 -19 4 -16 10 4 6 12 7 18 3 7 -4 6 0 -2 10 -7 9 -31 22 -52
29 -22 6 -39 17 -39 25 0 7 -9 13 -20 13 -11 0 -20 5 -20 10 0 6 -7 10 -16 10
-8 0 -13 -4 -10 -8 3 -5 -1 -9 -9 -9 -8 0 -12 4 -9 9 3 5 -283 8 -654 8 -568
-1 -663 -4 -681 -16z m729 -646 c0 -5 6 -8 13 -5 6 2 20 0 29 -5 14 -7 16 -5
11 9 -4 11 8 4 30 -16 21 -19 37 -29 37 -22 0 11 3 11 15 1 12 -10 15 -10 15
1 1 8 7 3 15 -11 8 -14 14 -20 15 -14 0 18 48 23 62 7 8 -10 22 -13 40 -9 34
7 37 -1 6 -15 l-23 -10 23 5 c28 5 54 -3 47 -14 -3 -5 0 -12 6 -16 7 -4 9 -3
6 3 -4 6 1 14 10 17 11 5 26 -2 42 -19 17 -17 20 -24 9 -20 -9 4 -19 13 -22
21 -3 8 -11 14 -18 14 -7 0 -4 -9 9 -21 24 -24 75 -35 67 -14 -9 23 44 4 61
-21 10 -15 20 -22 28 -17 13 8 60 12 52 4 -5 -5 26 -30 38 -31 5 0 5 6 1 13
-6 10 -4 10 7 0 15 -15 33 -18 25 -5 -3 5 10 4 29 -2 23 -7 30 -13 22 -19 -8
-6 -5 -7 6 -3 11 3 24 3 30 -1 6 -4 23 -8 36 -9 14 -2 27 -7 29 -13 2 -5 13
-7 25 -4 18 4 20 3 7 -7 -12 -9 -8 -11 18 -6 18 3 31 2 28 -3 -10 -15 26 -36
63 -36 20 0 59 -9 88 -20 42 -15 50 -21 41 -32 -9 -11 -7 -12 7 -6 14 5 17 3
12 -9 -4 -12 3 -19 24 -27 37 -13 38 -25 2 -17 -20 4 -14 -1 17 -17 24 -12 50
-33 56 -45 16 -32 39 -54 31 -29 -4 10 -3 16 2 13 17 -11 67 -239 53 -244 -11
-3 -3 -60 9 -68 5 -3 9 -16 9 -29 0 -13 6 -30 13 -37 6 -7 12 -22 11 -33 0
-11 4 -26 9 -33 5 -7 9 -36 9 -65 0 -39 2 -47 9 -32 6 15 8 9 8 -25 -1 -25 0
-49 1 -55 1 -8 -1 -152 -4 -207 -1 -23 -9 -23 -31 2 -14 16 -15 19 -4 15 16
-6 16 2 7 72 -1 7 -8 15 -15 17 -8 3 -11 2 -8 -3 3 -5 0 -13 -7 -17 -7 -4 -10
-4 -6 1 4 4 -2 21 -13 36 -14 21 -16 29 -7 29 18 1 -39 50 -58 50 -8 0 -14 5
-14 10 0 7 6 7 20 0 19 -10 19 -10 2 20 -9 16 -25 30 -35 30 -11 0 -15 4 -11
12 5 7 3 8 -6 3 -7 -4 -15 -3 -19 3 -4 7 -12 8 -21 2 -13 -8 -12 -10 3 -10 9
0 17 -5 17 -10 0 -7 -6 -7 -19 0 -11 5 -26 10 -35 10 -8 0 -27 5 -43 12 -31
13 -38 15 -54 17 -5 0 -8 5 -4 10 3 6 -16 8 -45 6 -29 -2 -48 0 -45 5 3 5 -9
3 -27 -4 -18 -8 -34 -19 -34 -25 -1 -6 -3 -14 -4 -18 -1 -5 -1 -12 0 -18 1 -5
-2 -7 -6 -2 -4 4 -19 -3 -33 -15 l-26 -23 20 24 c20 24 20 24 0 18 -19 -7 -20
-7 -1 8 18 13 18 15 2 21 -20 8 -73 -41 -56 -51 6 -3 10 -2 10 2 0 5 7 18 15
29 14 18 15 18 12 -4 -2 -12 -20 -39 -40 -60 -37 -38 -37 -39 -18 -56 22 -20
46 -12 36 13 -5 13 -4 13 6 4 10 -10 17 -9 32 5 19 17 20 16 7 -7 -11 -21 -10
-23 4 -18 9 4 28 2 42 -3 17 -7 23 -7 19 0 -10 16 11 12 25 -5 11 -13 16 -12
44 2 34 18 68 25 60 11 -3 -4 16 -8 41 -8 28 0 44 -4 40 -10 -3 -6 4 -10 17
-10 21 -1 22 -2 5 -14 -15 -12 -11 -13 28 -10 28 2 44 0 40 -6 -3 -6 3 -10 13
-10 20 0 55 -43 55 -67 0 -7 4 -13 9 -13 4 0 8 -9 8 -19 0 -11 6 -22 13 -24 6
-3 1 -6 -13 -7 -14 -1 -19 -4 -12 -7 6 -2 12 -11 12 -19 0 -10 5 -12 13 -8 7
5 6 0 -3 -11 -8 -10 -10 -16 -4 -12 7 4 15 0 18 -9 3 -8 2 -13 -3 -10 -5 3
-11 -7 -13 -24 -2 -16 -1 -27 4 -24 4 3 5 -14 2 -37 -5 -32 -3 -40 7 -34 9 6
11 3 6 -9 -6 -14 -2 -17 21 -14 25 3 27 6 26 46 0 23 3 42 8 42 4 0 8 7 8 15
0 8 -4 15 -10 15 -5 0 -10 5 -10 11 0 6 6 9 13 6 15 -6 18 34 3 45 -6 4 -6 15
0 29 9 20 11 21 17 5 4 -10 3 -15 -3 -11 -6 3 -10 2 -10 -4 0 -5 3 -12 8 -14
4 -3 7 -73 7 -156 0 -114 3 -152 13 -156 7 -2 19 -20 27 -39 13 -30 13 -47 0
-128 -15 -98 -32 -166 -45 -183 -4 -5 -13 -50 -20 -100 -13 -98 -33 -193 -54
-258 -8 -23 -33 -114 -56 -202 -42 -158 -104 -313 -163 -405 -16 -25 -26 -37
-24 -28 3 9 -1 19 -9 22 -9 3 -12 1 -9 -4 3 -6 1 -10 -5 -10 -6 0 -9 -4 -6 -9
10 -16 -5 -40 -20 -34 -9 3 -13 12 -9 21 4 12 0 11 -22 -3 l-28 -18 19 21 c10
11 16 27 13 34 -3 8 -6 6 -6 -6 -1 -12 -6 -16 -16 -12 -8 3 -15 1 -15 -5 0 -6
-7 -9 -15 -5 -12 4 -13 2 -5 -13 7 -15 6 -20 -6 -25 -9 -3 -20 -4 -25 -1 -5 4
-7 0 -4 -7 6 -16 -11 -45 -21 -36 -3 4 4 28 16 53 12 25 19 49 15 53 -4 4 -10
1 -12 -5 -3 -7 -9 -13 -14 -13 -20 0 -35 -25 -31 -52 3 -18 0 -28 -8 -28 -7 0
-10 -7 -6 -16 4 -10 2 -13 -6 -8 -7 5 -9 1 -6 -12 14 -48 13 -49 -9 -46 -21 3
-22 0 -16 -30 3 -18 2 -30 -2 -26 -12 11 -53 -82 -43 -95 2 -2 -5 -11 -15 -21
-9 -10 -14 -22 -11 -28 4 -6 2 -8 -4 -4 -6 3 -20 -6 -31 -20 -15 -19 -21 -22
-21 -11 0 9 -4 18 -9 21 -4 3 -7 -7 -5 -22 2 -15 1 -19 -2 -9 -7 23 -25 22
-31 -3 -3 -11 -10 -20 -17 -20 -6 0 -4 -5 4 -10 13 -8 13 -11 1 -22 -11 -11
-13 -11 -6 1 6 11 4 13 -10 8 -9 -4 -24 -2 -31 4 -8 6 -14 8 -14 4 0 -5 -9 0
-20 10 -18 17 -20 17 -14 2 3 -10 1 -17 -6 -17 -6 0 -8 -4 -5 -10 7 -11 -8
-14 -19 -3 -13 13 -48 14 -43 0 3 -7 -3 -13 -12 -14 -52 -3 -68 -8 -64 -20 3
-7 0 -13 -6 -13 -6 0 -11 7 -11 15 0 8 -4 15 -8 15 -5 0 -13 12 -19 28 l-11
27 -1 -33 c-1 -30 -3 -33 -23 -26 -31 9 -59 35 -51 47 3 6 1 7 -5 3 -7 -4 -12
-2 -12 5 0 7 -3 9 -6 6 -10 -10 23 -55 46 -62 l21 -7 -22 -19 c-25 -22 -47
-26 -30 -6 16 20 4 26 -29 17 -16 -4 -31 -6 -34 -2 -3 3 -6 0 -6 -6 0 -7 -9
-12 -20 -12 -11 0 -20 4 -20 10 0 5 6 7 13 4 8 -3 14 1 14 8 0 7 3 24 7 38 7
23 7 23 -6 7 -16 -21 -52 -13 -44 9 3 8 1 14 -5 14 -5 0 -12 -7 -16 -16 -5
-13 -7 -13 -14 -2 -7 10 -9 10 -9 1 0 -7 -4 -13 -9 -13 -6 0 -9 9 -8 20 1 11
6 20 12 20 5 0 3 4 -5 10 -8 5 -17 5 -20 1 -3 -5 -16 -12 -29 -16 -18 -5 -22
-4 -16 5 5 8 4 11 -3 6 -5 -3 -12 -3 -15 1 -2 5 -2 2 -1 -4 2 -7 -5 -13 -16
-13 -11 0 -20 5 -20 10 0 6 -9 10 -19 10 -18 0 -19 3 -9 31 6 16 8 32 5 35 -3
3 -8 -4 -12 -15 -3 -12 -11 -21 -16 -21 -6 0 -8 4 -5 9 9 14 -16 19 -41 10
-17 -6 -23 -4 -28 12 -4 11 -13 18 -20 15 -19 -7 -27 5 -14 21 6 7 8 13 3 13
-5 0 -20 -16 -33 -35 -13 -20 -26 -33 -29 -30 -3 2 1 11 7 19 10 12 9 15 -7
13 -12 -1 -18 -6 -15 -14 4 -11 0 -11 -21 -2 -25 12 -25 13 -9 31 22 24 9 35
-27 21 -18 -7 -32 -8 -36 -2 -3 5 -9 7 -14 4 -4 -3 -6 4 -3 15 3 13 0 20 -8
21 -8 1 -20 2 -28 3 -8 0 -16 7 -19 15 -3 10 0 11 9 5 12 -7 12 -5 0 9 -7 9
-17 15 -21 12 -5 -3 -16 2 -24 11 -9 8 -16 13 -16 9 0 -3 -5 -3 -10 0 -8 5 -7
11 1 21 13 15 11 16 -44 19 -20 1 -40 5 -45 10 -4 4 1 5 11 2 11 -4 16 -3 12
3 -3 6 -15 10 -26 10 -12 0 -23 10 -29 25 -5 14 -12 25 -15 25 -4 0 -3 -6 1
-12 4 -7 -2 -5 -14 6 -12 10 -20 22 -17 25 5 9 -12 36 -25 37 -5 1 -14 2 -19
3 -5 0 -11 10 -14 21 -3 11 -1 17 4 14 14 -8 23 26 10 39 -8 8 -11 6 -11 -7 0
-12 -5 -16 -15 -12 -13 5 -14 2 -4 -16 9 -17 9 -23 0 -26 -6 -2 -8 -9 -5 -15
7 -13 7 -13 -41 42 -27 30 -28 33 -8 27 12 -4 24 -2 29 5 4 8 3 9 -4 5 -7 -4
-12 -3 -12 3 0 5 -11 8 -24 7 -14 -2 -27 3 -30 10 -3 9 0 11 12 7 14 -6 15 -4
4 9 -7 9 -9 18 -5 20 4 3 2 3 -5 1 -7 -1 -23 2 -34 8 -16 9 -18 13 -7 20 10 6
7 10 -13 18 -20 7 -25 15 -21 30 3 13 1 21 -7 21 -16 0 -36 21 -44 47 -4 12
-20 36 -36 52 -15 17 -23 31 -17 31 6 0 1 10 -11 23 -12 13 -22 27 -22 33 0 5
5 2 10 -6 7 -10 10 -11 10 -2 0 7 -7 15 -16 19 -9 3 -14 13 -11 24 3 11 1 22
-4 25 -5 3 -9 14 -9 25 0 10 -5 19 -10 19 -6 0 -10 6 -9 13 2 21 -13 57 -24
57 -6 0 -3 6 6 13 16 11 15 15 -7 60 -13 26 -20 45 -15 41 12 -7 11 3 -1 27
-9 15 -7 19 7 20 16 0 16 1 2 7 -9 4 -15 17 -14 30 1 12 -2 22 -6 22 -4 0 -3
17 1 37 11 46 0 72 -20 48 -10 -12 -11 -18 -2 -24 8 -5 6 -12 -8 -24 -21 -17
-28 -9 -9 10 8 8 8 13 0 17 -7 4 -13 -9 -17 -34 -6 -36 -8 -38 -20 -23 -13 17
-13 17 -14 -1 0 -13 -5 -16 -16 -12 -14 5 -15 4 -4 -9 10 -12 10 -15 -4 -15
-36 0 -77 32 -100 78 -13 27 -48 142 -78 258 -51 203 -53 213 -53 349 0 114 3
146 17 172 18 31 17 32 -5 36 -19 4 -19 4 5 6 15 0 30 6 34 13 5 7 2 8 -7 3
-8 -5 -11 -5 -7 -1 3 4 10 8 15 8 4 -1 16 7 27 16 22 20 145 24 168 5 8 -7 23
-11 34 -9 10 2 13 1 6 -1 -7 -3 -10 -9 -6 -14 3 -5 10 -7 15 -4 5 4 9 1 9 -5
0 -6 10 -15 23 -21 18 -8 24 -20 26 -52 1 -22 4 -45 7 -49 3 -5 3 -40 -1 -77
-6 -60 -9 -68 -25 -64 -12 3 -28 -6 -47 -27 -15 -18 -38 -43 -50 -56 -12 -13
-19 -24 -15 -24 4 0 1 -4 -6 -9 -11 -7 -9 -13 10 -30 12 -12 23 -32 23 -43 0
-12 7 -22 18 -24 9 -1 17 3 17 10 0 7 7 13 16 13 11 0 14 -7 10 -21 -5 -20 -4
-20 9 -2 7 10 18 15 24 11 7 -4 11 5 12 22 2 64 10 144 24 238 30 209 35 267
24 281 -6 7 -1 18 11 29 11 10 20 30 20 45 0 15 3 30 7 34 8 7 12 35 14 86 0
19 7 45 15 58 8 12 10 22 5 22 -5 0 -16 -10 -24 -22 l-16 -23 0 21 c-1 21 4
24 62 39 4 2 10 3 14 4 4 0 2 6 -4 12 -12 12 -5 52 7 44 5 -3 12 0 16 6 4 8 3
9 -4 5 -20 -12 -13 3 15 34 15 17 27 38 28 48 1 9 17 40 37 67 26 37 34 55 28
70 -8 22 5 55 22 55 6 0 3 -10 -8 -22 l-19 -23 22 19 c12 10 21 21 21 25 -9
32 35 136 52 126 5 -3 12 0 16 6 5 8 3 9 -6 4 -10 -6 -12 -4 -7 8 3 9 2 19 -3
22 -15 9 -12 22 6 29 12 5 15 2 10 -11 -6 -14 -4 -15 5 -6 14 14 3 34 -15 27
-18 -7 -30 12 -15 22 8 5 9 3 4 -7 -5 -8 -5 -11 0 -7 4 4 9 26 11 48 2 30 0
39 -9 34 -7 -4 -9 -4 -5 0 3 4 9 8 12 7 10 0 62 54 69 71 4 11 12 15 22 12 10
-4 15 0 15 14 0 12 10 31 23 44 12 13 15 15 7 5 -15 -19 -14 -19 15 -4 31 15
54 36 81 72 9 11 12 14 8 6 -5 -11 -3 -13 10 -8 12 5 24 -1 37 -15 l20 -23
-11 23 c-7 13 -8 27 -4 30 4 4 9 1 11 -6 4 -10 8 -10 19 -1 7 6 21 9 29 5 9
-3 14 -2 11 3 -9 13 22 34 39 27 11 -4 14 -2 9 6 -5 7 -2 9 8 5 10 -3 25 4 39
19 12 13 33 24 45 24 12 0 25 6 28 13 3 9 9 7 19 -6 15 -18 16 -17 22 4 4 12
10 18 14 13 10 -14 31 -15 29 -1 -2 7 5 11 17 9 11 -2 40 -5 65 -7 34 -3 39
-1 23 5 -13 5 -23 12 -23 14 0 3 7 2 17 -1 12 -5 14 -3 8 7 -5 8 -4 11 2 7 6
-4 16 -1 22 7 12 14 61 10 61 -6z m-2550 -2729 c3 -4 11 -9 19 -11 8 -2 25
-13 39 -25 13 -13 28 -21 32 -18 3 2 7 -2 7 -10 0 -15 -25 -20 -74 -17 -13 0
-23 -3 -23 -9 0 -5 8 -9 17 -9 18 0 10 -13 -10 -16 -7 -1 -21 -6 -31 -10 -15
-6 -17 -4 -11 7 7 12 6 12 -7 1 -16 -13 -48 -7 -48 10 0 6 -7 8 -15 4 -9 -3
-15 0 -15 10 0 8 -20 24 -45 35 -24 11 -47 23 -50 28 -6 10 18 21 47 21 11 0
34 6 51 14 56 26 98 24 117 -5z m-1627 -126 c4 -3 0 -14 -9 -24 -8 -9 -17 -37
-19 -62 l-4 -44 57 -6 c30 -3 59 -4 64 -1 17 11 7 62 -17 85 -13 13 -25 27
-25 32 0 12 21 8 37 -8 11 -11 19 -13 28 -5 18 15 39 -13 30 -40 -5 -16 0 -30
21 -51 38 -40 64 -39 65 4 1 17 1 35 0 40 0 4 8 7 18 7 20 0 22 -24 7 -61 -6
-13 0 -18 21 -21 26 -3 29 -1 31 24 1 17 -3 28 -10 29 -7 0 -2 5 11 10 18 7
28 6 41 -6 9 -8 20 -12 23 -8 4 3 8 -2 9 -13 4 -55 3 -71 -5 -98 -10 -28 -10
-28 -66 -21 -31 4 -128 15 -216 24 -141 14 -160 18 -163 35 -2 10 1 28 6 40
20 40 31 87 25 101 -9 25 23 55 40 38z m3022 -115 c7 -4 10 -19 7 -33 -3 -19
-1 -24 10 -20 8 3 15 0 16 -7 0 -7 3 -25 5 -40 3 -19 0 -25 -10 -21 -8 3 -12
12 -8 22 4 11 3 13 -4 6 -6 -7 0 -37 18 -90 24 -73 30 -81 61 -92 19 -7 29
-12 21 -12 -11 -1 -9 -6 5 -22 10 -12 18 -23 17 -25 -7 -11 -2 -34 6 -29 6 3
9 -4 8 -15 -1 -11 -5 -20 -9 -20 -4 0 -5 -7 -2 -15 9 -22 35 1 28 23 -5 14 -3
14 10 -2 16 -19 12 -41 -5 -31 -16 11 -10 -7 8 -20 9 -7 18 -22 20 -35 3 -19
1 -21 -12 -10 -22 18 -18 -4 4 -24 12 -11 21 -14 26 -7 3 6 12 11 18 10 9 0 9
-2 0 -6 -20 -7 -15 -33 12 -68 13 -18 21 -35 18 -39 -4 -3 1 -6 9 -6 11 0 14
-6 11 -19 -4 -17 9 -33 30 -37 4 -1 10 -2 13 -3 4 0 1 -8 -6 -16 -9 -11 -9
-15 -1 -15 7 0 9 -5 5 -11 -4 -8 -9 -8 -17 0 -6 6 -16 11 -21 11 -6 0 2 -12
17 -26 16 -14 31 -23 35 -19 4 4 1 10 -6 12 -18 7 -4 23 19 23 10 0 19 -2 19
-4 0 -2 3 -12 6 -20 5 -12 2 -15 -12 -10 -16 5 -16 4 -4 -5 8 -6 24 -8 35 -6
11 3 14 2 7 -1 -6 -3 -10 -10 -6 -15 3 -5 -3 -9 -13 -10 -11 0 -5 -6 16 -15
18 -8 41 -13 50 -10 12 5 11 2 -3 -9 -15 -11 -16 -17 -7 -29 9 -11 8 -15 -5
-20 -12 -4 -15 -2 -10 9 3 10 -1 15 -12 15 -15 0 -15 2 -2 10 17 11 10 13 -14
4 -9 -3 -16 -12 -16 -18 0 -14 45 -41 69 -41 9 0 15 -7 15 -17 -1 -9 4 -15 10
-13 6 2 25 -13 41 -35 17 -21 37 -39 45 -40 8 0 21 -9 28 -20 7 -12 23 -20 41
-20 15 0 36 -9 46 -20 11 -12 26 -18 35 -15 10 3 20 0 23 -8 3 -8 26 -17 51
-20 25 -4 57 -14 70 -22 13 -9 52 -17 87 -19 35 -2 73 -7 83 -11 15 -7 17 -5
11 6 -6 10 -5 11 4 3 7 -6 35 -10 64 -8 29 2 44 1 35 -2 -21 -6 -23 -20 -5
-27 6 -3 2 -6 -11 -6 -22 -1 -26 -19 -7 -33 5 -4 23 -5 40 -2 l30 5 -30 -16
c-16 -8 -22 -13 -13 -11 10 3 20 1 24 -5 4 -6 11 -6 20 2 8 6 17 9 20 6 8 -8
-35 -29 -45 -23 -14 9 -21 -20 -8 -33 8 -8 8 -11 0 -11 -6 0 -13 6 -15 12 -3
8 -14 3 -30 -14 -36 -40 -139 -59 -304 -58 -71 0 -139 2 -150 4 -10 2 -48 7
-84 11 -130 14 -446 83 -523 114 -208 83 -366 187 -531 349 -103 102 -151 162
-161 205 -7 25 -4 27 82 53 217 65 317 109 392 173 l35 28 -24 13 c-18 10 -20
14 -9 21 8 5 28 9 44 10 17 0 24 3 18 6 -20 7 -15 23 6 23 11 0 25 13 35 34
15 33 37 219 37 321 0 28 3 43 6 35 3 -8 11 -18 18 -22z m-2224 -48 c11 0 18
-4 15 -9 -5 -8 27 -58 45 -71 4 -3 10 -22 14 -43 4 -20 11 -40 16 -43 5 -3 6
-10 3 -16 -4 -6 -1 -9 7 -6 8 3 13 13 13 22 -1 9 1 16 5 16 4 0 8 8 8 18 -1
76 -2 74 61 69 31 -2 93 -18 137 -34 44 -17 114 -40 155 -53 41 -12 92 -31
113 -41 22 -10 56 -19 78 -19 21 0 39 -4 39 -10 0 -5 7 -10 15 -10 26 0 84
-44 90 -67 4 -18 13 -23 35 -23 30 0 110 45 110 61 0 5 4 8 9 6 5 -1 9 2 10 6
0 4 7 15 16 23 8 9 15 19 15 24 0 10 -62 24 -93 22 -9 0 -15 3 -12 9 4 5 -6 9
-20 9 -15 0 -24 4 -20 10 6 10 -5 13 -55 14 -16 1 -24 6 -22 15 2 9 -4 12 -18
8 -11 -3 -20 -2 -20 3 0 4 -20 17 -45 29 -25 12 -45 23 -45 26 0 10 125 -6
155 -20 44 -21 177 -65 196 -65 8 0 26 -11 39 -25 20 -21 32 -25 79 -25 64 1
216 22 226 31 11 12 45 -3 56 -23 8 -15 7 -24 -6 -38 -15 -17 -15 -19 2 -29
17 -10 16 -10 -4 -11 -13 0 -23 -5 -23 -12 0 -6 -6 -4 -13 5 -9 13 -28 17 -77
18 -77 0 -174 17 -212 35 -15 8 -35 14 -45 14 -15 -1 -13 -5 8 -23 26 -21 27
-25 23 -112 -2 -49 0 -144 4 -210 l7 -120 23 23 c12 12 32 22 45 22 14 0 -6
-15 -58 -44 -80 -43 -81 -43 -213 -50 -117 -6 -137 -5 -172 11 -33 15 -38 22
-33 42 5 22 3 23 -21 17 -22 -5 -26 -3 -26 14 0 11 -8 33 -17 47 -17 26 -17
26 5 21 23 -6 32 15 12 27 -7 4 -1 17 15 31 15 14 24 31 22 38 -3 8 12 33 34
57 45 48 51 85 17 98 -13 5 -61 11 -108 14 -47 2 -172 12 -278 22 -238 21
-230 25 -227 -100 1 -65 -1 -85 -12 -85 -7 0 -13 -9 -13 -20 0 -11 5 -20 10
-20 6 0 10 -7 10 -15 0 -8 -6 -15 -14 -15 -17 0 -29 -44 -20 -72 5 -17 8 -18
16 -7 8 11 8 10 4 -4 -3 -10 -6 -23 -6 -28 0 -6 -5 -7 -10 -4 -12 8 -32 -38
-36 -85 -7 -85 -7 -83 -22 -63 -13 17 -14 17 -8 -2 5 -17 -2 -23 -42 -38 -26
-10 -69 -27 -97 -39 -27 -11 -58 -21 -67 -21 -9 -1 -15 -4 -13 -7 5 -8 -57
-46 -68 -42 -5 1 -6 -2 -2 -7 7 -12 -29 -33 -40 -23 -5 4 -5 2 -2 -4 6 -11
-118 -129 -160 -152 -29 -16 -145 -16 -323 0 -126 12 -135 14 -138 34 -3 19 2
22 42 26 25 2 46 0 46 -3 0 -4 9 -5 20 -2 20 5 28 23 10 23 -5 0 -10 9 -10 20
0 11 -4 20 -9 20 -4 0 -6 11 -4 24 6 30 41 37 97 19 21 -7 52 -13 69 -13 17 0
46 -6 65 -12 47 -17 55 -3 76 133 10 61 20 117 22 124 7 17 -42 43 -75 40 -14
-1 -27 -7 -29 -13 -5 -16 -49 -15 -55 1 -2 6 0 20 5 30 7 13 5 17 -11 17 -24
0 -36 33 -22 57 6 11 11 13 11 5 0 -9 7 -11 21 -7 17 6 20 4 15 -12 -5 -14 -1
-20 11 -20 10 0 23 4 29 9 6 4 18 6 26 3 8 -3 26 -1 40 4 22 8 27 6 37 -12
l12 -22 -5 23 c-3 14 1 22 10 22 8 0 13 3 13 8 -5 32 4 83 17 96 12 12 12 16
2 16 -8 1 -5 6 7 16 17 12 18 16 5 24 -8 5 -11 12 -8 16 4 3 15 -1 24 -11 14
-13 15 -18 4 -25 -18 -11 -5 -40 20 -40 24 0 27 -20 3 -21 -12 0 -13 -2 -5 -6
7 -3 19 0 27 7 11 9 12 7 8 -9 -4 -16 -1 -21 16 -21 11 0 21 -6 21 -14 0 -7 7
-19 15 -26 8 -7 15 -25 15 -41 0 -15 5 -31 10 -34 6 -3 10 -2 10 4 0 6 13 2
30 -7 30 -17 33 -26 33 -99 -1 -18 3 -33 8 -33 5 0 7 12 3 28 -6 26 -6 27 9 6
10 -13 28 -21 46 -22 28 -1 30 1 21 19 -6 10 -8 19 -5 19 3 0 1 9 -5 19 -6 13
-6 21 0 23 5 2 15 41 21 88 5 47 14 96 20 110 9 26 26 124 38 225 14 114 62
327 69 305 2 -5 13 -10 23 -10z m5893 -466 c23 -9 19 -24 -6 -25 -32 -2 238
-30 477 -49 149 -12 195 -19 195 -30 0 -5 -10 -12 -22 -16 -12 -3 -28 -13 -36
-21 -8 -8 -26 -12 -43 -9 -22 3 -29 0 -29 -12 0 -13 -2 -14 -9 -4 -7 11 -10
10 -15 -3 -10 -26 -7 -85 4 -85 6 0 10 -5 10 -11 0 -5 -4 -7 -10 -4 -5 3 -10
-1 -10 -9 0 -13 -13 -16 -65 -16 -36 0 -65 -4 -65 -9 0 -5 9 -7 20 -4 11 3 20
1 20 -5 0 -5 -11 -12 -25 -14 -22 -5 -25 -1 -31 38 -3 23 -4 67 -1 97 2 30 1
61 -3 68 -5 6 -10 -32 -11 -86 -3 -67 -8 -100 -16 -103 -7 -2 -13 -8 -13 -13
0 -6 4 -8 9 -4 5 3 12 2 15 -3 2 -4 -5 -9 -16 -9 -11 -1 -26 -10 -33 -19 -7
-10 -23 -19 -36 -21 -18 -2 -20 -1 -9 6 8 5 17 8 21 5 4 -2 7 5 6 16 -1 12 -8
20 -19 20 -24 0 -23 26 2 43 25 17 18 40 -17 56 -19 9 -29 9 -39 0 -8 -6 -14
-8 -14 -3 0 4 -6 0 -13 -11 -8 -10 -19 -15 -25 -11 -15 9 -15 3 0 -29 9 -19 8
-34 -2 -66 -12 -34 -12 -42 0 -49 11 -7 10 -11 -3 -25 -10 -9 -17 -23 -17 -31
0 -22 -23 -26 -55 -10 -31 16 -45 13 -45 -10 0 -9 -11 -14 -35 -14 -28 0 -35
-4 -35 -20 0 -13 5 -18 15 -14 8 4 15 2 15 -4 0 -5 -8 -12 -19 -15 -15 -4 -20
3 -26 37 -4 22 -7 57 -7 76 0 76 13 376 16 393 3 12 -2 17 -17 16 -12 0 -17
-2 -12 -5 10 -4 10 -300 -1 -362 -4 -28 -9 -33 -25 -29 -25 7 -25 -10 1 -18
13 -4 20 -15 20 -31 0 -21 -4 -25 -22 -22 -13 2 -22 9 -20 17 1 7 -3 11 -10 8
-7 -2 -12 -11 -10 -21 2 -9 -4 -16 -13 -16 -23 0 -18 -14 15 -38 18 -14 30
-18 30 -10 0 17 29 -24 30 -41 0 -10 -12 -4 -32 16 -18 16 -48 39 -66 49 -28
16 -30 20 -15 26 10 5 3 5 -16 2 l-34 -6 6 61 c2 34 7 64 10 67 2 3 26 -3 52
-11 34 -12 50 -14 58 -6 8 8 6 11 -5 11 -9 0 -29 5 -45 12 -15 7 -35 12 -43
13 -11 0 -14 10 -12 38 2 22 -2 37 -8 37 -7 0 -9 8 -5 19 3 11 1 22 -5 26 -6
4 -8 16 -4 28 3 12 3 19 -1 15 -5 -4 -14 0 -22 10 -12 16 -13 16 -6 -2 4 -13
2 -17 -8 -14 -25 8 -39 52 -39 126 l0 72 43 -1 c23 0 66 -4 95 -8 40 -6 52 -4
52 6 0 9 17 13 59 13 33 0 66 -3 75 -6z m1284 -120 c31 -9 28 -24 -5 -25 l-28
-2 26 -4 c24 -4 27 -8 27 -46 0 -23 2 -52 5 -64 8 -30 -15 -58 -39 -48 -10 4
-22 7 -26 7 -5 -1 -8 5 -8 13 0 9 -9 15 -22 15 -19 0 -20 2 -8 10 13 8 12 10
-2 10 -10 0 -18 5 -18 10 0 6 -9 10 -20 10 -11 0 -19 3 -18 8 2 4 -4 17 -13
29 -14 21 -18 21 -59 9 -24 -7 -46 -18 -48 -24 -2 -7 -9 -12 -15 -12 -8 0 -11
17 -10 45 1 35 -3 45 -15 47 -19 2 134 13 218 16 30 1 65 -1 78 -4z m-6635
-179 c23 -16 37 -34 37 -47 l0 -22 20 22 c23 25 22 24 44 16 25 -10 19 -33
-11 -40 -16 -3 -32 -7 -37 -8 -5 -1 -10 -11 -12 -22 -1 -10 -5 -36 -8 -56 -6
-37 -5 -38 23 -38 41 0 80 16 109 45 14 14 33 25 43 25 26 0 89 -32 89 -44 0
-30 -189 -69 -262 -54 -7 2 -12 -3 -10 -11 1 -7 -3 -19 -9 -27 -9 -11 -8 -14
2 -14 11 0 11 -2 -1 -10 -8 -5 -11 -10 -7 -10 4 0 3 -9 -3 -20 -8 -15 -8 -20
2 -20 9 0 9 -3 2 -8 -6 -4 -10 -19 -9 -34 1 -16 -3 -28 -8 -28 -6 0 -7 -3 -4
-6 11 -11 -13 -44 -32 -44 -35 0 -48 35 -56 148 -2 40 -7 50 -34 67 -17 11
-31 25 -31 32 0 6 -13 22 -29 35 -35 30 -50 68 -27 68 42 0 82 -39 91 -89 8
-40 11 -38 19 13 10 59 -10 80 -91 100 -87 22 -111 36 -62 36 20 0 49 2 65 5
32 6 74 -22 88 -60 8 -19 8 -19 17 3 5 12 11 44 13 70 3 26 5 48 5 50 3 10 43
-2 74 -23z m4068 -20 c24 -9 47 -21 52 -28 5 -7 6 -4 2 9 -4 16 0 23 14 27 23
6 35 -16 23 -41 -7 -15 -8 -24 -3 -49 1 -5 6 -1 12 7 9 13 10 12 5 -2 -3 -10
-1 -20 4 -23 5 -3 7 -14 5 -25 -2 -11 3 -27 11 -35 17 -17 49 -21 39 -5 -4 6
1 7 12 4 16 -5 16 -4 -1 10 -14 11 -15 16 -6 16 9 0 8 5 -6 16 -23 19 1 7 38
-18 l27 -18 6 43 c5 32 2 53 -9 75 -10 19 -12 33 -6 37 6 3 10 -2 10 -12 0
-14 2 -15 9 -4 8 12 14 12 40 1 42 -17 40 -45 -5 -104 l-36 -48 23 -16 c13 -9
26 -16 29 -15 3 0 10 -5 17 -12 10 -10 9 -14 -3 -19 -9 -3 -12 -1 -9 4 6 9 -8
14 -27 11 -5 0 -7 3 -5 8 1 5 -2 9 -6 10 -4 0 -16 10 -26 22 -17 21 -48 19
-36 -2 4 -5 -2 -6 -12 -2 -13 4 -10 -3 10 -24 16 -17 25 -33 20 -36 -12 -8
-95 42 -88 53 3 5 0 12 -6 16 -8 4 -9 3 -5 -4 5 -8 -3 -12 -23 -12 -39 0 -76
15 -104 41 l-22 20 48 -20 c27 -12 59 -21 72 -21 20 0 23 5 21 29 -2 34 -70
116 -104 126 -17 5 -9 -6 27 -40 28 -26 48 -52 45 -57 -3 -5 -1 -15 6 -23 8
-9 8 -15 0 -20 -6 -4 -9 -3 -8 2 1 4 -3 18 -10 31 -7 12 -10 22 -6 22 4 0 -1
9 -11 20 -26 29 -39 13 -15 -20 24 -34 25 -41 5 -34 -8 4 -15 13 -15 21 0 8
-4 12 -9 9 -5 -3 -15 2 -22 12 -13 15 -12 16 4 3 9 -7 17 -9 17 -4 0 15 -21
32 -34 27 -18 -7 -48 50 -34 64 14 14 7 15 59 -3z m-781 -36 c0 -5 -5 -7 -12
-3 -7 5 -9 2 -5 -9 3 -9 0 -18 -9 -21 -19 -7 -18 -22 2 -30 8 -3 12 -2 9 3 -3
6 1 13 8 18 8 4 19 17 25 28 8 14 11 16 12 5 0 -9 -6 -24 -14 -35 -17 -24 -37
-95 -28 -96 44 -5 50 -4 45 8 -6 16 -20 17 -26 1 -3 -7 -6 -1 -6 14 -1 16 10
38 25 55 14 15 24 24 21 18 -2 -5 -1 -19 3 -30 7 -16 9 -12 15 23 8 43 11 47
32 34 9 -6 7 -13 -8 -26 -17 -14 -20 -25 -16 -52 3 -19 2 -34 -4 -34 -5 0 -9
-7 -9 -15 0 -8 5 -15 12 -15 6 0 2 -9 -11 -21 -12 -12 -20 -27 -17 -34 3 -8
-1 -19 -9 -25 -8 -6 -17 -25 -20 -41 -6 -28 -45 -62 -45 -39 0 5 5 10 12 10 6
0 9 3 5 6 -3 4 -21 -6 -39 -21 -25 -21 -28 -26 -11 -21 12 4 24 2 28 -4 4 -6
-7 -10 -27 -10 -18 0 -57 -3 -86 -7 -48 -5 -52 -4 -45 13 4 11 8 13 11 6 6
-19 32 -14 32 6 0 14 -2 15 -10 2 -7 -11 -11 -9 -19 13 -12 30 -26 38 -16 8 3
-11 -1 -24 -11 -32 -16 -13 -17 -11 -10 14 4 16 2 27 -4 27 -5 0 -10 -6 -10
-14 0 -9 -7 -12 -21 -9 -18 5 -19 7 -6 15 9 5 14 15 11 23 -4 10 0 15 11 15 9
0 13 5 10 10 -3 6 4 10 17 11 22 0 22 1 3 9 -18 8 -18 9 5 9 20 1 22 3 10 12
-12 8 -10 9 8 4 13 -4 22 -2 22 4 0 6 -5 11 -11 11 -5 0 -8 4 -4 10 3 5 12 7
19 4 9 -3 17 3 21 16 4 12 16 25 28 30 22 8 22 8 -3 18 -19 8 -20 11 -7 11 14
1 17 6 12 21 -5 16 -2 20 17 20 27 0 52 42 35 59 -7 7 -3 13 14 20 32 13 39
13 39 0z m-4764 -154 c3 -8 0 -30 -6 -50 -9 -28 -15 -33 -25 -25 -20 16 -53
20 -78 9 l-22 -10 22 5 c25 4 34 -11 22 -35 -9 -17 -69 -15 -69 3 0 7 -5 7
-13 0 -10 -8 -16 -6 -25 9 -7 11 -17 17 -22 14 -6 -4 -8 -11 -5 -16 4 -5 -1
-9 -10 -9 -12 0 -15 6 -10 21 5 16 3 20 -12 17 -10 -2 -21 -10 -25 -18 -5 -11
-7 -9 -7 7 -1 27 -46 34 -110 16 -43 -13 -90 -17 -63 -6 10 4 10 8 1 19 -10
12 14 14 162 13 119 -1 176 -5 181 -13 4 -6 8 3 8 20 0 40 5 44 57 44 29 0 46
-5 49 -15z m2610 -315 c6 -6 26 -19 44 -29 19 -10 41 -29 49 -42 l16 -24 -29
23 c-35 27 -44 27 -73 3 -31 -26 -29 -28 15 -24 l37 4 -33 -15 c-18 -8 -31
-19 -30 -23 2 -4 -8 -30 -21 -56 -16 -33 -28 -46 -38 -43 -8 3 -11 1 -8 -4 8
-13 41 -13 66 1 16 8 26 5 54 -18 18 -15 49 -39 69 -53 43 -30 45 -46 9 -54
-44 -11 -113 -40 -113 -48 0 -5 7 -8 16 -8 12 0 15 -6 10 -24 -3 -14 -1 -28 4
-31 6 -4 8 -10 5 -15 -8 -13 34 -81 72 -118 30 -28 34 -37 28 -65 -9 -41 -44
-97 -124 -193 l-65 -77 30 -24 c16 -13 48 -33 72 -44 45 -22 54 -44 22 -54
-11 -3 -27 -13 -36 -22 -14 -14 -20 -10 -65 40 -27 31 -58 59 -69 62 -32 10
-24 33 34 97 30 33 71 91 91 129 20 39 43 73 50 75 33 13 -95 184 -137 184 -9
0 -8 3 2 11 12 8 11 9 -5 5 -11 -3 -37 -8 -57 -11 -44 -8 -50 -22 -43 -94 9
-76 -1 -86 -105 -106 -158 -30 -230 -49 -230 -60 0 -5 11 -27 25 -47 32 -48
32 -58 -5 -59 -16 -1 -36 -2 -42 -3 -8 -1 -17 21 -23 55 -5 31 -15 63 -22 70
-6 8 -9 20 -5 26 8 12 92 22 92 11 0 -5 -9 -8 -20 -8 -11 0 -20 -5 -20 -11 0
-7 7 -8 18 -4 9 4 28 10 42 13 21 4 22 6 6 12 -11 4 22 13 85 23 57 10 108 22
113 27 6 6 18 10 28 10 22 0 32 37 25 93 -4 27 -2 36 4 26 5 -7 9 -23 10 -34
1 -11 5 -4 9 15 9 37 -2 54 -29 45 -9 -4 -11 0 -7 11 4 10 -1 25 -9 34 -11 12
-13 20 -6 25 16 9 -4 42 -29 50 -11 4 -17 11 -14 17 4 7 2 8 -5 4 -7 -5 -24
-5 -39 -1 -18 4 -22 9 -13 14 10 6 9 10 -3 14 -9 4 -16 2 -16 -3 0 -6 -23 2
-51 17 -28 16 -72 39 -98 53 -65 36 -122 81 -118 93 6 18 27 19 27 2 0 -13 6
-16 25 -13 14 3 29 0 33 -6 4 -6 32 -24 62 -41 46 -25 66 -29 120 -29 37 1 54
-2 40 -6 -25 -6 -25 -6 9 -23 18 -9 37 -14 42 -11 9 5 56 -18 98 -48 13 -10
34 -18 47 -18 12 0 24 -5 26 -11 4 -13 68 -21 68 -9 0 8 -27 20 -108 45 -32
10 -50 21 -45 28 4 6 0 8 -10 4 -16 -6 -97 32 -97 46 0 4 32 7 70 7 64 0 81 6
63 23 -3 4 -8 21 -10 39 -2 17 -4 32 -6 33 -1 0 -24 10 -52 21 -36 14 -50 25
-50 39 0 21 5 22 108 24 31 1 45 8 70 36 31 36 55 43 73 25z m511 -208 c12
-13 23 -29 23 -37 0 -8 5 -15 11 -15 6 0 9 -7 6 -15 -4 -8 -2 -17 4 -21 6 -3
8 -13 5 -21 -10 -24 19 -45 47 -34 14 6 28 7 31 4 12 -12 6 23 -13 72 -17 45
-17 51 -3 61 12 9 23 8 48 -7 18 -9 35 -15 40 -11 4 4 4 -1 1 -10 -3 -10 -1
-21 6 -25 13 -9 17 -27 17 -83 0 -64 -1 -70 -10 -65 -4 3 -10 -1 -13 -8 -5
-14 -51 -15 -103 -3 -26 6 -31 4 -29 -11 0 -10 4 -24 9 -31 4 -6 4 -16 1 -22
-3 -5 -3 -16 1 -22 10 -16 14 -41 17 -108 1 -30 5 -60 10 -67 4 -6 1 -13 -5
-16 -10 -3 -10 -9 -3 -23 14 -25 12 -131 -3 -146 -9 -9 -21 -8 -52 1 -31 9
-45 20 -57 47 -9 18 -20 34 -23 34 -4 0 -6 11 -5 25 2 14 -2 51 -8 84 l-11 58
-41 1 c-71 0 -94 4 -99 18 -3 8 -11 14 -18 14 -22 1 -73 143 -82 229 -3 23 22
61 36 54 4 -2 9 1 12 6 9 15 45 1 51 -20 4 -10 11 -19 17 -19 6 0 5 -6 -3 -16
-10 -13 -10 -17 0 -24 11 -6 11 -9 0 -13 -12 -4 -11 -7 1 -16 10 -7 11 -11 3
-11 -7 0 -13 -7 -13 -15 0 -8 6 -15 13 -15 9 0 8 -3 -2 -9 -9 -6 -10 -11 -2
-15 6 -4 9 -12 6 -17 -4 -5 1 -12 9 -15 9 -3 13 -10 10 -15 -3 -5 2 -9 10 -9
9 0 16 -4 16 -10 0 -5 9 -10 20 -10 11 0 20 -4 20 -10 0 -5 7 -7 15 -4 11 5
12 11 4 25 -5 10 -7 19 -3 19 3 0 2 6 -3 13 -5 6 -10 21 -11 32 -2 23 -4 33
-21 95 -6 25 -15 52 -19 60 -14 25 -4 88 16 108 37 37 84 38 119 4z m2039 -27
c-3 -8 -2 -14 2 -14 21 3 32 -3 32 -17 0 -14 -3 -14 -16 -3 -10 8 -8 0 6 -24
23 -38 39 -52 20 -18 -13 26 -13 31 5 31 9 0 12 -6 9 -15 -4 -8 1 -17 9 -21 9
-3 14 -11 11 -19 -3 -7 2 -20 11 -29 9 -9 14 -16 10 -16 -3 0 0 -10 7 -22 7
-13 12 -25 13 -28 0 -3 13 -32 30 -65 26 -55 30 -58 35 -35 4 14 2 31 -4 39
-8 11 -8 13 2 7 10 -6 12 12 3 42 -1 1 -1 5 -2 10 0 4 -5 13 -11 20 -7 8 -7
12 2 12 10 0 10 3 0 15 -9 11 -9 15 -1 15 7 0 10 4 7 9 -8 12 18 21 43 14 25
-6 63 -82 63 -127 0 -55 -11 -74 -53 -92 -21 -10 -39 -22 -39 -27 0 -4 -5 -5
-11 -1 -8 4 -8 0 0 -15 13 -24 23 -28 15 -6 -4 8 -1 15 5 15 6 0 11 -7 11 -15
0 -8 7 -15 15 -15 9 0 12 -6 9 -15 -4 -8 1 -17 9 -21 9 -3 19 -19 22 -35 4
-16 11 -29 16 -29 6 0 7 -5 3 -12 -4 -7 -3 -8 4 -4 12 7 12 33 -1 53 -14 22
15 68 46 71 19 2 27 -1 27 -13 0 -8 6 -18 14 -21 8 -3 12 -13 8 -26 -3 -11 1
-24 9 -29 10 -6 10 -9 2 -9 -7 0 -13 -7 -13 -16 0 -20 -20 -39 -48 -48 -25 -8
-29 -34 -7 -42 8 -4 12 -10 9 -15 -3 -5 1 -12 10 -15 8 -3 12 -12 9 -20 -3 -8
0 -14 6 -14 6 0 11 -9 11 -19 0 -11 5 -23 10 -26 6 -4 8 -10 5 -15 -3 -5 2
-15 10 -23 8 -9 12 -23 9 -31 -3 -9 -2 -16 3 -16 6 0 10 -16 11 -35 3 -70 -51
-33 -104 72 -12 23 -19 44 -16 47 2 3 -3 8 -12 12 -9 3 -13 10 -10 15 3 5 -1
12 -10 15 -8 3 -12 12 -9 20 3 8 1 14 -5 14 -5 0 -17 16 -26 35 -9 19 -21 35
-27 35 -6 0 -8 4 -4 9 3 5 -4 16 -15 24 -11 7 -18 16 -15 19 3 3 -6 17 -20 32
-17 19 -33 26 -45 23 -11 -3 -20 -2 -20 2 0 12 -121 72 -131 65 -5 -3 -9 2 -9
10 0 9 -8 16 -19 16 -11 0 -23 5 -26 11 -4 5 -12 8 -18 6 -6 -2 -19 5 -29 15
-10 10 -25 18 -34 18 -8 0 -12 5 -9 10 3 6 0 13 -8 15 -18 8 -15 45 6 56 18
11 107 -8 107 -22 0 -5 4 -9 10 -9 5 0 25 -15 43 -32 67 -64 95 -88 106 -88 6
0 11 -4 11 -10 0 -5 8 -14 18 -19 15 -8 13 1 -12 52 -17 34 -34 64 -39 65 -4
2 -5 8 -2 12 3 5 -4 26 -16 47 -12 21 -29 51 -37 66 -8 16 -19 30 -26 32 -6 2
-37 11 -69 21 -52 15 -56 18 -39 30 21 15 37 13 70 -5 23 -12 23 -12 8 11 -17
26 -14 67 6 80 23 14 61 10 54 -7z m-4286 -85 c0 -9 4 -20 9 -25 5 -6 12 -35
16 -65 12 -94 12 -105 -5 -101 -27 8 -111 7 -123 -2 -8 -6 -6 -7 6 -3 15 5 14
1 -5 -24 -12 -17 -24 -30 -27 -30 -4 0 -19 14 -35 31 l-29 30 21 22 c18 18 34
21 91 22 l70 0 -5 45 c-3 25 -10 69 -15 99 -13 76 -12 80 11 46 11 -16 20 -37
20 -45z m890 -200 c0 -17 9 -48 20 -70 21 -42 24 -69 14 -143 -5 -38 -11 -48
-34 -57 -15 -6 -43 -10 -61 -8 l-34 3 3 80 c2 59 8 88 24 112 14 25 18 43 14
67 -7 38 -2 46 31 46 19 0 23 -5 23 -30z m5418 -61 c11 -8 25 -30 31 -49 8
-27 10 -29 7 -7 -2 15 -2 27 0 27 17 0 88 -102 78 -113 -3 -2 13 -20 34 -38
50 -43 64 -71 53 -101 -6 -17 -3 -30 11 -51 34 -48 8 -87 -31 -48 -18 18 -19
25 -9 46 14 32 -1 62 -45 90 -31 20 -33 20 -50 2 -13 -13 -22 -15 -30 -9 -7 6
-16 11 -22 11 -5 1 -10 8 -9 16 4 66 3 65 28 55 20 -7 23 -6 19 9 -5 20 -43
47 -43 31 0 -6 -14 5 -31 25 -17 19 -37 35 -44 35 -8 0 -17 5 -20 10 -10 16
-16 60 -10 69 7 13 59 6 83 -10z m-6815 -174 c14 -10 15 -15 6 -21 -9 -5 -8
-9 7 -15 18 -7 17 -8 -3 -8 -24 -1 -43 -23 -25 -29 17 -5 15 -22 -2 -22 -17 0
-31 -33 -17 -38 17 -6 13 -22 -5 -22 -13 0 -15 -7 -11 -29 4 -19 2 -31 -7 -34
-17 -7 -28 -47 -13 -47 6 0 1 -9 -11 -20 -23 -21 -30 -50 -12 -50 6 0 10 -4
10 -10 0 -5 -7 -10 -15 -10 -16 0 -38 -34 -28 -44 4 -3 -2 -13 -13 -22 -18
-14 -18 -15 6 -8 14 4 30 14 37 23 9 11 12 12 13 3 0 -21 20 -3 20 19 0 10 5
19 10 19 6 0 10 -5 10 -11 0 -5 5 -7 10 -4 6 3 10 15 10 26 0 10 7 19 15 19 8
0 15 9 15 19 0 10 7 22 16 25 9 4 14 13 10 21 -4 10 1 15 15 15 11 0 23 8 27
18 12 30 112 32 142 2 23 -23 25 -31 8 -28 -7 2 -12 -5 -10 -14 2 -10 -3 -18
-11 -18 -18 0 -61 -46 -53 -58 3 -5 -4 -12 -15 -15 -11 -3 -23 -14 -25 -25 -3
-10 -19 -26 -35 -36 -16 -9 -29 -24 -29 -33 0 -9 -6 -13 -15 -9 -9 3 -25 -4
-36 -15 -14 -14 -24 -17 -28 -11 -4 6 -22 10 -41 9 -19 -1 -55 2 -79 7 -31 6
-42 5 -37 -3 4 -6 2 -11 -4 -11 -7 0 -10 -7 -6 -15 3 -9 0 -15 -9 -15 -20 0
-39 -37 -22 -44 8 -3 7 -8 -6 -16 -13 -9 -17 -19 -13 -36 4 -14 2 -24 -4 -24
-5 0 -10 -7 -10 -15 0 -8 5 -15 12 -15 6 0 3 -10 -8 -22 -17 -21 -16 -20 9 1
18 16 25 31 21 43 -3 12 0 18 10 18 15 0 17 4 20 40 1 8 9 14 18 12 9 -1 22 6
30 16 16 23 79 34 111 19 l23 -11 -20 -20 c-13 -13 -16 -21 -8 -24 8 -2 1 -17
-19 -39 -24 -28 -28 -38 -17 -44 10 -7 9 -9 -4 -9 -9 0 -23 -8 -30 -19 -7 -10
-24 -22 -38 -26 -14 -4 -31 -12 -38 -18 -8 -6 -32 -10 -53 -8 -37 2 -76 -18
-62 -33 4 -3 -1 -6 -10 -6 -9 0 -21 -9 -27 -19 -13 -25 -13 -34 0 -26 6 3 10
2 10 -4 0 -5 -4 -13 -10 -16 -14 -9 -13 -42 2 -47 8 -3 7 -11 -4 -27 -9 -13
-14 -29 -12 -36 8 -19 -43 -94 -72 -107 -36 -17 -56 9 -43 55 6 22 5 33 -4 39
-9 6 -7 12 7 23 20 15 16 45 -6 45 -9 0 -8 3 2 10 13 8 13 13 2 30 -7 11 -10
26 -6 32 4 5 1 14 -6 18 -9 6 -8 14 5 34 10 15 13 26 6 26 -6 0 -11 5 -11 10
0 6 7 10 15 10 8 0 12 6 9 14 -3 8 4 16 17 19 17 5 20 11 15 31 -4 15 -2 26 4
26 5 0 10 7 10 15 0 8 -5 15 -12 15 -9 0 -9 3 0 12 7 7 12 22 12 35 0 23 -12
28 -52 25 -11 -1 -15 3 -12 13 4 9 0 15 -9 15 -8 0 -17 7 -21 15 -3 8 -13 15
-21 15 -9 0 -13 5 -10 10 3 6 -1 13 -9 16 -9 3 -13 11 -9 17 4 6 -2 8 -15 5
-25 -7 -28 2 -10 20 10 10 10 15 -1 21 -8 5 -11 16 -8 25 4 11 1 16 -10 16
-12 0 -13 3 -4 14 6 7 9 21 5 30 -3 9 -1 16 6 16 7 0 9 8 5 20 -4 11 -2 20 4
20 6 0 11 9 11 20 0 11 5 20 11 20 6 0 20 11 31 25 23 29 92 38 82 10 -4 -8
-1 -15 6 -15 10 0 10 -3 1 -14 -9 -11 -9 -15 0 -18 9 -3 9 -9 0 -26 -9 -17 -9
-22 0 -22 8 0 8 -4 -1 -15 -6 -8 -9 -19 -6 -24 4 -5 2 -12 -3 -16 -15 -9 -8
-65 8 -65 10 0 11 -3 3 -13 -14 -16 1 -42 19 -32 9 6 11 3 6 -8 -8 -21 2 -49
14 -41 5 3 9 13 9 23 0 10 6 24 14 31 8 6 12 18 9 26 -3 8 1 14 11 14 9 0 16
6 16 14 0 8 7 17 16 20 8 3 13 10 10 15 -3 5 1 11 9 15 8 3 15 12 15 21 0 8 4
15 10 15 5 0 13 12 16 28 4 15 11 32 16 39 5 7 7 16 4 22 -3 5 0 11 8 14 19 8
27 57 10 64 -8 3 -11 9 -8 14 3 5 0 9 -5 9 -6 0 -11 6 -11 14 0 7 -7 19 -16
27 -13 11 -13 14 -1 21 10 5 13 16 9 30 -4 15 -2 19 7 14 7 -5 21 0 32 10 18
16 19 16 19 -5 0 -12 4 -20 9 -17 5 4 7 -12 4 -36 -3 -34 -2 -39 7 -25 6 9 8
22 5 27 -3 6 1 13 9 16 9 3 16 15 16 25 0 10 3 18 8 17 13 -2 42 14 37 22 -7
12 88 -1 108 -15z m3987 -30 c15 -24 33 -38 60 -45 22 -6 42 -15 45 -20 3 -6
-1 -7 -10 -4 -9 4 -26 -2 -38 -12 -21 -19 -21 -19 -7 0 13 17 13 20 0 24 -8 3
-28 18 -43 34 -44 44 -63 37 -27 -9 11 -14 20 -34 20 -44 0 -11 7 -19 18 -19
14 0 15 -2 2 -10 -12 -7 -12 -12 -2 -22 6 -6 12 -8 12 -2 0 11 57 47 81 51 9
1 29 -11 45 -28 l29 -31 -39 -34 c-22 -19 -44 -34 -50 -34 -21 0 -106 91 -106
114 0 12 -12 38 -26 59 -26 39 -26 67 0 67 8 0 24 -16 36 -35z m2409 -164 c16
-16 27 -32 23 -36 -4 -4 2 -13 13 -21 11 -8 19 -17 18 -19 -8 -13 -1 -25 13
-25 10 0 14 -6 10 -15 -3 -8 3 -20 12 -27 9 -7 18 -20 20 -28 2 -8 10 -20 18
-27 9 -6 15 -15 15 -20 -1 -4 6 -16 14 -26 8 -9 15 -21 15 -27 0 -5 6 -13 13
-17 8 -4 17 -17 21 -28 l8 -20 8 20 c4 11 3 22 -2 24 -6 2 -4 8 3 13 12 8 12
10 0 15 -10 4 -11 7 -1 13 8 5 9 13 4 21 -12 19 -14 59 -3 59 5 0 9 4 9 10 0
5 -3 9 -7 9 -5 -1 -15 -1 -23 0 -12 1 -13 3 -1 10 8 5 10 14 5 22 -10 17 -12
59 -2 59 4 0 8 7 8 15 0 12 5 13 18 7 9 -5 23 -7 31 -4 9 3 11 0 6 -7 -4 -8 1
-14 14 -18 11 -3 19 -9 16 -13 -6 -10 15 -60 24 -60 4 0 6 -36 6 -80 0 -44 -4
-80 -8 -80 -10 0 -77 -64 -77 -74 0 -3 7 -6 15 -6 8 0 15 -7 15 -15 0 -8 7
-15 16 -15 8 0 13 -4 9 -9 -3 -5 5 -17 17 -25 12 -9 18 -16 13 -16 -6 0 -3 -6
6 -13 16 -12 33 -46 31 -59 -1 -5 2 -8 8 -8 13 0 13 27 -1 35 -6 4 -8 13 -5
21 3 7 1 16 -3 19 -10 5 -8 52 3 76 4 10 15 14 30 12 20 -4 26 -15 35 -61 7
-32 10 -66 8 -77 -11 -47 -20 -65 -33 -65 -8 0 -14 -10 -14 -25 0 -14 5 -25
11 -25 6 0 9 -6 6 -14 -3 -8 -3 -17 0 -20 3 -3 7 -18 8 -33 2 -16 6 -57 10
-93 9 -79 8 -131 -4 -143 -13 -13 -31 1 -31 22 0 10 -3 21 -7 25 -4 3 -8 14
-9 24 -1 9 -6 35 -9 57 -4 22 -7 48 -7 57 0 10 -3 20 -8 23 -5 3 -7 12 -3 20
3 8 0 15 -6 15 -6 0 -8 6 -5 13 3 8 -2 20 -10 27 -9 7 -13 16 -11 21 3 4 -4
13 -15 19 -11 6 -18 15 -15 20 3 5 -3 15 -15 22 -11 7 -20 16 -20 20 0 21 -46
59 -70 57 -47 -4 -140 52 -140 85 0 8 -5 18 -10 21 -6 4 -8 11 -5 16 4 5 2 9
-2 9 -10 0 -83 139 -83 158 0 37 50 -20 90 -103 36 -74 67 -111 117 -137 37
-20 37 -20 21 -1 -10 11 -18 25 -18 31 0 7 -4 12 -10 12 -5 0 -10 6 -10 14 0
8 -3 16 -8 18 -9 4 -92 171 -92 186 0 7 -9 21 -19 31 -19 19 -71 105 -71 118
0 3 9 -2 20 -12 27 -24 33 -16 15 19 -15 28 -20 56 -10 56 2 0 18 -13 34 -29z"/>
<path d="M4744 5351 c5 -7 -3 -11 -21 -11 -96 -1 -163 -9 -191 -24 -18 -9 -36
-14 -41 -11 -5 2 -11 -2 -15 -10 -3 -8 0 -15 6 -15 6 0 9 -2 6 -5 -3 -3 -13
-2 -22 1 -14 5 -15 9 -4 15 9 6 7 9 -9 9 -12 0 -24 -4 -27 -9 -3 -5 -14 -7
-24 -4 -11 2 -29 -6 -45 -22 -15 -16 -31 -24 -38 -19 -7 4 -9 3 -6 -3 6 -10
-78 -103 -93 -103 -4 0 -15 -9 -25 -20 -10 -11 -14 -20 -10 -20 5 0 1 -6 -9
-13 -13 -10 -15 -14 -5 -15 8 0 28 -5 44 -11 29 -11 29 -11 -11 -7 -23 2 -48
0 -55 -5 -9 -5 15 -8 61 -8 51 0 69 3 55 9 -17 7 -16 9 10 10 l30 2 -30 8
c-20 5 -24 8 -10 9 17 1 18 3 5 11 -19 12 -13 12 30 0 32 -9 33 -8 16 5 -11 8
-16 15 -10 16 5 0 0 4 -11 9 -19 8 -19 9 3 9 12 1 34 -6 47 -15 23 -15 25 -15
26 2 1 11 1 22 0 26 0 3 13 3 29 -2 37 -11 38 -5 3 15 l-28 15 26 -6 c20 -4
30 0 41 15 13 19 17 20 28 6 14 -17 35 -21 25 -5 -3 6 1 10 10 10 9 0 13 5 10
10 -3 6 -2 10 4 10 5 0 13 -4 16 -10 3 -5 11 -10 17 -10 6 0 5 7 -3 17 -13 17
-13 17 13 0 19 -12 29 -14 34 -5 5 7 3 8 -6 3 -8 -5 -11 -4 -7 2 8 12 144 9
177 -4 14 -6 29 -8 34 -5 5 3 6 -2 3 -12 -6 -15 -2 -16 29 -12 19 4 33 2 30
-2 -3 -5 1 -9 9 -9 8 0 15 5 15 10 0 6 8 3 19 -7 17 -16 56 -13 46 4 -3 5 4 6
15 3 16 -4 20 0 21 23 1 24 2 25 6 7 2 -13 9 -23 14 -23 16 0 14 94 -2 120 -8
11 -9 10 -4 -6 3 -12 1 -32 -4 -45 -7 -18 -10 -20 -10 -6 -1 10 -5 15 -11 12
-6 -3 -7 1 -3 10 5 13 7 14 14 3 14 -21 11 9 -3 35 -21 40 -39 46 -123 42 -44
-1 -88 1 -99 7 -13 7 -16 7 -12 -1z"/>
<path d="M5026 5238 c-3 -13 -6 -35 -6 -50 0 -21 -4 -26 -17 -22 -17 5 -17 5
0 -6 23 -15 22 -36 -3 -36 -11 0 -20 6 -20 13 0 16 -16 17 -26 1 -4 -7 -3 -8
4 -4 7 4 12 1 12 -8 0 -8 -7 -19 -16 -24 -13 -7 -14 -11 -2 -23 17 -19 22 -43
7 -33 -8 5 -10 2 -7 -7 8 -19 -66 -19 -89 1 -20 17 -48 20 -218 23 -85 1 -124
-2 -133 -10 -15 -15 -36 -17 -28 -4 7 10 -35 -2 -106 -32 -26 -11 -45 -23 -43
-28 3 -4 -11 -14 -30 -23 -19 -9 -39 -26 -45 -36 -6 -11 -19 -20 -30 -20 -14
0 -18 -5 -13 -17 4 -10 2 -14 -5 -9 -6 3 -14 2 -17 -4 -4 -6 -1 -9 7 -8 7 2
12 -4 10 -14 -6 -36 46 -44 136 -19 23 7 48 8 55 4 15 -10 24 -12 67 -18 27
-4 30 -3 15 4 -20 10 -19 11 22 15 18 2 20 0 12 -11 -8 -9 -8 -13 -1 -13 6 0
14 5 17 10 10 17 24 2 18 -20 -3 -12 0 -20 6 -20 7 0 9 5 6 10 -3 6 2 10 12
10 15 0 16 2 3 10 -12 8 -12 10 5 10 20 1 20 1 1 15 -11 8 -17 17 -15 20 3 2
20 -9 38 -26 18 -16 30 -33 27 -37 -4 -3 -11 0 -16 8 -9 14 -14 7 -11 -12 0
-5 -5 -8 -11 -8 -8 0 -4 -7 6 -15 15 -12 17 -18 8 -27 -10 -10 -20 -13 -65
-17 -22 -2 8 -21 34 -21 16 0 29 -4 29 -10 0 -10 -25 -14 -67 -10 -13 1 -23
-3 -23 -9 0 -6 -13 -8 -32 -4 -18 3 -30 3 -27 -1 10 -11 129 -29 180 -28 66 2
198 46 238 79 32 27 33 29 15 43 -17 13 -18 13 -7 -1 10 -12 10 -18 1 -27 -14
-14 -68 -16 -68 -2 0 5 8 6 18 3 15 -6 15 -5 3 10 -9 11 -10 17 -2 17 6 0 11
5 11 11 0 8 -12 10 -35 6 -24 -4 -33 -2 -29 5 5 7 2 8 -7 2 -43 -27 -47 1 -6
44 16 16 30 46 34 67 l6 38 24 -27 c12 -15 23 -35 23 -45 0 -19 -38 -41 -70
-41 -10 0 -22 -4 -25 -10 -7 -11 85 -8 172 5 56 8 75 22 77 58 1 12 7 21 14
19 7 -1 26 5 42 13 28 14 29 18 26 64 -3 27 -9 58 -15 69 -6 11 -7 22 -4 26 3
3 -6 17 -22 32 -26 24 -27 29 -22 90 6 66 4 81 -7 42z"/>
<path d="M5570 5040 c12 -8 12 -10 1 -10 -8 0 -11 -3 -8 -7 9 -8 -24 -32 -45
-33 -12 0 -19 -11 -23 -37 -3 -21 -8 -50 -10 -65 -4 -23 -1 -28 15 -28 14 0
18 -5 13 -17 -4 -10 -2 -14 5 -9 6 3 14 2 17 -4 4 -6 1 -9 -7 -8 -7 2 -12 -3
-10 -9 1 -7 -2 -13 -8 -13 -19 0 -10 -15 18 -28 44 -22 135 -52 140 -47 2 2
17 -2 33 -10 15 -8 35 -12 43 -9 9 3 16 1 16 -5 0 -6 8 -11 18 -11 9 0 24 -5
32 -11 13 -9 13 -10 -2 -6 -45 15 -91 19 -84 8 5 -7 1 -9 -8 -5 -9 3 -16 11
-16 18 0 7 -4 6 -9 -3 -6 -9 -11 -10 -15 -2 -4 6 -12 9 -17 5 -5 -3 -7 -10 -4
-15 7 -11 -7 -12 -21 -1 -5 4 1 -3 14 -15 13 -13 19 -23 13 -23 -5 0 -12 4
-16 10 -3 5 -12 7 -21 3 -13 -5 -12 -8 3 -25 10 -11 31 -27 48 -35 16 -9 32
-19 35 -23 8 -12 73 -42 66 -31 -8 13 -4 14 18 5 9 -3 14 -9 12 -13 -3 -4 4
-7 14 -7 10 0 16 4 14 8 -7 12 1 10 39 -8 25 -12 39 -14 52 -6 16 8 14 11 -16
17 -35 7 -103 44 -96 51 2 2 20 -3 40 -11 48 -20 73 -20 55 -1 -7 8 -21 12
-30 10 -22 -4 -24 12 -3 20 8 3 15 13 15 22 0 11 -5 14 -17 9 -14 -5 -15 -4
-6 6 10 10 16 9 32 -5 15 -13 20 -14 24 -4 4 11 8 11 27 0 21 -13 22 -12 18 6
-6 21 0 22 45 4 16 -7 33 -12 38 -12 5 0 9 -6 9 -14 0 -21 25 -26 50 -9 18 13
20 21 15 54 -4 21 -3 44 2 51 16 26 10 58 -12 58 -16 0 -17 2 -5 10 13 9 13
10 0 10 -13 0 -13 1 0 10 13 8 12 10 -3 10 -10 0 -15 5 -12 10 3 6 -5 10 -19
10 -14 0 -27 4 -31 9 -22 37 -224 101 -276 88 -10 -3 -19 -2 -19 3 0 4 -22 10
-50 14 -52 7 -59 13 -38 34 7 7 8 12 3 12 -6 0 -5 4 1 8 9 5 8 11 -2 20 -11
10 -14 10 -14 0 0 -9 -3 -9 -10 2 -6 10 -10 11 -10 3 0 -15 -26 -17 -35 -3 -3
6 1 7 12 4 10 -3 7 2 -7 10 -27 16 -55 22 -30 6z"/>
<path d="M3473 4840 c-41 -17 -55 -72 -49 -195 4 -60 13 -128 22 -150 11 -29
14 -32 11 -12 -3 15 0 27 7 27 6 0 24 40 40 87 36 112 51 134 86 131 17 -1 27
-8 26 -17 -1 -8 13 -23 31 -33 l31 -19 -5 23 c-12 47 -53 98 -117 146 -32 24
-48 26 -83 12z"/>
<path d="M5128 4338 c20 -20 13 -27 -23 -24 -19 2 -32 0 -29 -5 3 -5 -8 -12
-25 -15 -17 -4 -31 -10 -31 -15 0 -5 -8 -9 -19 -9 -10 0 -30 -9 -44 -20 -14
-11 -30 -20 -36 -20 -7 0 -14 -6 -17 -14 -3 -8 -12 -12 -19 -9 -19 7 -9 -46
13 -70 14 -15 27 -18 84 -14 37 3 66 1 63 -3 -2 -4 15 0 40 9 43 15 44 15 65
-9 17 -19 31 -24 83 -26 34 -1 71 2 82 6 11 5 14 9 7 9 -10 1 -10 4 2 16 19
19 30 19 22 -1 -3 -8 -2 -12 3 -9 5 3 12 1 16 -5 3 -5 17 -10 29 -10 13 0 35
-12 50 -26 26 -26 77 -36 83 -17 2 6 10 18 17 28 13 18 10 32 -26 95 -4 8 -11
22 -15 30 -13 28 -37 49 -47 42 -16 -10 -36 -11 -36 -3 0 5 -18 8 -41 8 -22 0
-35 -3 -29 -7 8 -5 9 -10 2 -14 -6 -3 -13 3 -17 14 -3 11 -11 20 -16 20 -6 0
-8 -4 -4 -9 11 -18 -15 -22 -46 -6 -17 9 -44 17 -60 17 -17 1 -29 6 -29 15 0
7 -5 13 -11 13 -8 0 -8 4 -1 13 9 10 4 16 -20 25 -24 9 -29 9 -20 0z"/>
<path d="M5370 4000 c0 -5 3 -10 8 -11 51 -5 82 -35 82 -80 0 -15 5 -31 10
-34 6 -3 10 -14 10 -23 0 -17 -20 18 -39 70 -12 33 -62 69 -69 50 -3 -10 -7
-10 -20 0 -13 11 -15 10 -10 -3 4 -9 1 -22 -5 -28 -7 -7 -7 -12 -2 -11 28 6
38 0 25 -15 -7 -9 -10 -18 -6 -22 3 -3 6 -1 6 6 0 7 5 9 10 6 6 -4 8 -11 5
-16 -4 -5 -3 -15 2 -21 4 -7 8 -19 9 -25 1 -7 12 -24 23 -39 17 -22 22 -23 27
-11 3 9 3 21 -1 27 -3 5 -1 10 6 10 8 0 9 -10 5 -30 -3 -18 -2 -29 4 -25 5 3
9 -4 9 -15 1 -11 1 -29 2 -40 0 -11 4 -20 10 -20 5 0 8 3 7 8 -1 4 2 27 7 52
l9 45 6 -35 c3 -19 2 -43 -2 -52 -6 -12 -5 -18 4 -18 9 0 9 -3 0 -12 -12 -12
-48 1 -84 31 -14 11 -18 11 -18 1 0 -9 -4 -9 -12 -2 -15 12 -93 6 -125 -10
-19 -9 -27 -8 -43 7 -12 11 -37 19 -60 20 -22 0 -43 5 -47 10 -4 4 1 5 12 1
16 -6 17 -5 8 5 -8 8 -46 12 -115 11 -95 -1 -104 1 -121 21 l-18 22 7 -27 c4
-18 2 -28 -5 -28 -6 0 -10 10 -10 23 2 27 16 86 18 72 3 -21 48 -66 70 -70 22
-4 22 -3 7 20 -24 37 -20 50 9 31 32 -21 44 -20 42 2 -1 24 -27 50 -27 27 0
-8 -7 -15 -15 -15 -8 0 -15 7 -15 16 0 8 5 12 10 9 6 -3 10 1 10 9 0 24 -25
19 -37 -6 -6 -15 -12 -18 -17 -10 -4 7 -2 12 4 12 7 0 6 5 -2 14 -11 12 -14 9
-19 -18 l-6 -31 -10 25 c-10 24 -11 24 -18 -15 -5 -22 -10 -34 -12 -27 -3 6
-12 12 -21 12 -12 0 -13 -3 -5 -8 8 -5 9 -13 3 -22 -7 -12 -11 -7 -16 18 -4
17 -11 32 -16 32 -5 0 -7 -4 -3 -10 3 -5 -8 -16 -26 -25 -17 -9 -28 -12 -25
-7 3 5 -5 13 -19 16 -14 4 -25 11 -25 16 0 5 -8 6 -17 3 -15 -6 -16 -4 -6 8
12 15 6 17 -37 10 -3 -1 -11 -11 -19 -23 -13 -22 -13 -22 13 1 29 28 36 15 8
-16 -15 -17 -20 -19 -34 -9 -13 10 -15 15 -6 24 7 7 8 12 4 12 -4 0 -16 -10
-27 -22 -10 -13 -18 -18 -19 -11 0 6 -9 9 -20 6 -12 -3 -20 0 -20 7 0 9 -6 7
-20 -5 -11 -10 -21 -36 -25 -64 -3 -25 -9 -58 -14 -73 -8 -24 -6 -28 10 -28
13 0 17 -5 12 -17 -4 -11 -3 -14 5 -9 7 4 12 1 12 -8 0 -9 5 -16 10 -16 6 0
10 9 10 19 0 14 5 18 20 14 11 -3 17 -10 14 -17 -3 -6 0 -4 8 4 15 17 99 22
109 7 4 -5 15 -5 27 2 12 6 23 7 26 2 9 -14 63 -7 83 11 16 15 36 17 139 14
65 -3 139 -9 164 -15 25 -5 72 -12 105 -15 123 -12 161 -18 178 -31 10 -7 17
-17 16 -21 -3 -20 2 -35 10 -30 5 3 11 -1 15 -9 3 -8 1 -17 -4 -20 -6 -4 -10
-1 -10 5 0 6 -5 8 -11 4 -8 -5 -6 -10 5 -16 10 -6 20 -7 23 -5 3 3 15 2 27 -2
11 -5 43 -5 70 -1 44 7 56 4 107 -23 32 -17 58 -33 57 -36 -2 -19 4 -19 24 -1
32 29 56 22 26 -8 -9 -9 -8 -12 4 -12 8 0 23 15 32 33 12 25 16 27 16 12 0
-12 -5 -26 -12 -33 -8 -8 -8 -12 -1 -12 26 0 32 90 7 114 -14 15 -11 20 9 17
15 -2 6 37 -13 60 -18 21 -19 22 -14 4 4 -15 4 -17 -4 -6 -6 8 -8 19 -6 26 3
6 -2 18 -11 25 -8 7 -15 18 -15 25 0 6 -12 17 -27 24 l-28 13 30 -28 c22 -20
26 -29 16 -32 -8 -3 -25 8 -39 24 -19 23 -21 24 -12 6 6 -13 9 -26 6 -29 -5
-6 -26 40 -26 57 0 4 -12 16 -27 25 l-28 18 25 -29 c14 -16 21 -26 16 -22 -5
4 -15 3 -23 -3 -10 -9 -13 -8 -13 2 0 11 -2 11 -9 1 -5 -9 -13 2 -24 35 -9 26
-16 39 -17 28 -1 -19 -1 -20 -12 -1 -9 15 -7 22 8 33 23 17 10 59 -26 81 -24
15 -24 15 3 -10 27 -27 35 -48 18 -48 -5 0 -12 6 -15 13 -3 6 -4 1 -3 -13 3
-32 -17 -39 -21 -8 -2 13 -14 32 -28 44 -13 12 -21 24 -18 27 17 16 -57 104
-78 91 -4 -3 -8 0 -8 5 0 6 -4 11 -10 11 -5 0 -10 -4 -10 -10z"/>
<path d="M2953 6548 c2 -7 18 -13 36 -14 39 -1 44 -5 33 -34 l-9 -24 -5 22
c-7 25 -48 31 -48 7 0 -8 3 -15 8 -15 4 0 16 -28 27 -62 10 -35 22 -70 26 -78
23 -51 33 -77 35 -93 1 -10 5 -22 10 -26 9 -9 275 -36 452 -47 90 -6 102 -5
102 10 0 9 5 16 11 16 5 0 7 5 3 11 -3 6 -9 28 -11 48 -3 20 -8 38 -12 41 -3
3 -8 19 -9 35 -4 35 -40 176 -46 183 -3 2 -13 1 -23 -3 -24 -10 -75 -8 -347
16 -126 10 -231 19 -234 19 -2 0 -2 -6 1 -12z"/>
</g>
</svg>
